<svg xmlns="http://www.w3.org/2000/svg" width="186" height="29" viewBox="0 0 186 29"><g fill-rule="nonzero" fill="none"><path d="M66.487 13.843v-.163c2.366-1.084 3.84-3.403 3.761-5.915 0-5.224-4.613-6.793-10.485-6.793h-9.83v19.84h6.462V16.92h3.604c3.552 0 5.334.527 5.334 2.925 0 2.399-1.808 3.29-5.334 3.29h-1.153v5.174h1.677c6.213 0 11.127-2.511 11.127-8.062.136-3.054-2.044-5.759-5.163-6.404zm-7.078-1.909h-3.014V5.718h3.067c3.001 0 4.469.817 4.469 2.926 0 2.11-1.39 3.253-4.522 3.253v.037zM0 .947h6.461v10.535h9.856V.947h6.448v27.362h-6.448V16.882H6.46v11.427H0z" fill="#184E8B"/><path fill="#184E8B" d="M56.395 23.123H34.128L46.762 4.676V.946H26.16v5.187h12.634L26.16 24.579v3.73h30.235z"/><path fill="#6CABE9" d="M81.585.909h1.428v4.483h5.243V.909h1.415V11.62h-1.533V6.597h-5.243v5.023h-1.31zM91.925 7.665a3.662 3.662 0 01.921-2.855 3.998 3.998 0 012.801-1.314c2.11 0 3.303 1.444 3.303 3.767a4.2 4.2 0 010 .766h-5.57c-.04.723.233 1.43.753 1.955.52.524 1.244.821 2 .82.724-.046 1.418-.3 1.991-.728l.498.879a4.997 4.997 0 01-2.726.829 4.015 4.015 0 01-2.944-1.21 3.67 3.67 0 01-1.027-2.91zm5.793-.653c0-1.582-.747-2.449-2.044-2.449-1.346.08-2.39 1.157-2.373 2.449h4.417zM100.995 10.076V.03h1.402v10.046c0 .414.183.577.393.577.1.015.202.015.302 0l.183 1.03a2.44 2.44 0 01-.8.126c-1.048.012-1.48-.628-1.48-1.733zM105.333 3.684h1.153l.118 1.155a3.718 3.718 0 012.621-1.343c1.039-.086 1.996.546 2.28 1.507a3.972 3.972 0 012.74-1.507c1.704 0 2.516 1.067 2.516 3.101v5.023h-1.402V6.76c0-1.468-.485-2.109-1.534-2.109a3.072 3.072 0 00-2.083 1.256v5.751h-1.324V6.761c0-1.47-.485-2.11-1.534-2.11a3.098 3.098 0 00-2.083 1.256v5.751h-1.403l-.065-7.974zM119.461.03h1.442v4.772a4.002 4.002 0 012.752-1.256c1.743 0 2.53 1.067 2.53 3.102v5.023h-1.403V6.76c0-1.47-.472-2.11-1.56-2.11-.91.081-1.739.54-2.267 1.256v5.751h-1.494V.03zM128.11 7.665c-.345-1.506.303-3.062 1.635-3.927a4.075 4.075 0 014.412 0c1.332.865 1.98 2.42 1.634 3.927.346 1.506-.302 3.062-1.634 3.927a4.075 4.075 0 01-4.412 0c-1.332-.865-1.98-2.421-1.634-3.927zm6.226 0c0-1.821-.956-3.052-2.385-3.052-1.429 0-2.385 1.256-2.385 3.052s.956 3.039 2.385 3.039c1.429 0 2.385-1.218 2.385-3.04zM137.94 10.076V.03h1.311v10.046c0 .414.183.577.38.577.104.015.21.015.315 0l.183 1.03a2.44 2.44 0 01-.8.126c-.995.012-1.389-.628-1.389-1.733zM142.488 9.172V4.777h-1.232v-.98l1.31-.075.158-2.223h1.18v2.223h2.24v1.092h-2.24v4.383c0 .967.327 1.532 1.31 1.532.33-.02.652-.093.957-.214l.262 1.005a5.183 5.183 0 01-1.533.301c-1.822 0-2.412-1.08-2.412-2.65zM147.115 10.905l4.364-6.128h-3.932V3.684h5.649V4.4l-4.351 6.128h4.495v1.092h-6.225zM80.798 27.656l5.885-8.79h-5.36v-1.13h7.13v.803l-5.898 8.79h5.95v1.156h-7.707zM89.645 24.492a3.663 3.663 0 01.925-2.86 3.999 3.999 0 012.81-1.31c2.11 0 3.303 1.445 3.303 3.768.001.256-.02.513-.066.766h-5.583c-.04.722.233 1.427.754 1.95.521.523 1.244.817 1.998.812a3.74 3.74 0 002.058-.628l.498.88a5.038 5.038 0 01-2.74.828 4.013 4.013 0 01-2.973-1.244 3.666 3.666 0 01-.984-2.962zm5.793-.603c0-1.582-.747-2.512-2.045-2.512-1.371.081-2.424 1.196-2.372 2.512h4.417zM98.714 20.51h1.22l.117 1.144a3.995 3.995 0 012.778-1.331c1.744 0 2.53 1.067 2.53 3.101v5.023h-1.402v-4.86c0-1.469-.472-2.11-1.573-2.11a3.162 3.162 0 00-2.254 1.257v5.75h-1.416v-7.973zM108.282 25.998v-4.395h-1.232v-1.017l1.31-.075.17-2.223h1.18v2.223h2.241v1.092h-2.24v4.42c0 .967.314 1.533 1.31 1.533.325-.02.644-.092.943-.214l.276 1.005a5.265 5.265 0 01-1.534.301c-1.835 0-2.424-1.08-2.424-2.65zM113.786 20.51h1.153l.131 1.445c.417-.916 1.321-1.541 2.36-1.632.302-.017.604.039.878.163l-.262 1.168a2.726 2.726 0 00-.8-.126c-.695 0-1.533.477-2.097 1.82v5.1h-1.402l.04-7.937zM119.592 25.546v-5.023h1.402v4.86c0 1.47.46 2.11 1.56 2.11.852 0 1.429-.402 2.215-1.344v-5.638h1.376v7.936h-1.153l-.118-1.256a3.539 3.539 0 01-2.726 1.444c-1.77.013-2.556-1.067-2.556-3.089zM128.976 20.51h1.1l.119 1.156a3.745 3.745 0 012.621-1.343c1.042-.088 2.003.544 2.293 1.506a3.97 3.97 0 012.727-1.506c1.703 0 2.516 1.067 2.516 3.101v5.023h-1.402v-4.86c0-1.469-.485-2.11-1.534-2.11a3.072 3.072 0 00-2.084 1.257v5.75h-1.323v-4.897c0-1.469-.485-2.11-1.534-2.11-.845.127-1.6.58-2.084 1.257v5.75h-1.389l-.026-7.973zM146.63 17.736h3.329c2.267 0 3.84.74 3.84 2.624.026 1.018-.636 1.936-1.639 2.273v.063c1.314.165 2.292 1.242 2.28 2.511 0 2.11-1.742 3.14-4.232 3.14h-3.578V17.736zm3.106 4.558c1.9 0 2.686-.678 2.686-1.758s-.917-1.67-2.686-1.67h-1.717v3.478l1.717-.05zm.288 5.023c1.914 0 3.04-.666 3.04-2.11s-1.074-1.92-3.04-1.92h-1.94v4.03h1.94zM155.909 24.492a3.663 3.663 0 01.92-2.855 3.998 3.998 0 012.802-1.314c2.11 0 3.302 1.444 3.302 3.767a4.2 4.2 0 010 .766h-5.583c-.036.72.239 1.424.759 1.946s1.24.817 1.994.816c.737 0 1.456-.22 2.057-.628l.511.88c-.807.53-1.76.819-2.739.828a4.017 4.017 0 01-3.017-1.22 3.667 3.667 0 01-1.006-2.986zm5.78-.653c0-1.583-.748-2.512-2.032-2.512-1.373.081-2.43 1.194-2.385 2.512h4.416zM164.965 20.51h1.166l.118 1.445c.417-.916 1.321-1.541 2.36-1.632a1.85 1.85 0 01.877.163l-.262 1.168a2.59 2.59 0 00-.8-.126c-.694 0-1.533.477-2.096 1.82v5.1h-1.402l.039-7.937zM170.876 26.852V16.807h1.402V26.94c0 .415.197.578.393.578.105.014.21.014.315 0l.183 1.03c-.26.087-.536.13-.812.125-1.049-.025-1.481-.665-1.481-1.82zM174.965 18.012a.923.923 0 01.538-.909c.357-.168.785-.11 1.08.145a.903.903 0 01.256 1.016.969.969 0 01-.891.602.93.93 0 01-.686-.221.85.85 0 01-.297-.633zm.262 2.511h1.402v7.937h-1.402v-7.937zM179.42 20.51h1.154l.118 1.144a3.995 3.995 0 012.779-1.331c1.743 0 2.529 1.067 2.529 3.101v5.023h-1.402v-4.86c0-1.469-.472-2.11-1.573-2.11a3.162 3.162 0 00-2.254 1.257v5.75h-1.403l.053-7.973z"/></g></svg>