<?xml version="1.0" encoding="UTF-8" standalone="no"?>
<!DOCTYPE svg PUBLIC "-//W3C//DTD SVG 1.1//EN" "http://www.w3.org/Graphics/SVG/1.1/DTD/svg11.dtd">
<svg width="100%" height="100%" viewBox="0 0 5906 5906" version="1.1" xmlns="http://www.w3.org/2000/svg" xmlns:xlink="http://www.w3.org/1999/xlink" xml:space="preserve" xmlns:serif="http://www.serif.com/" style="fill-rule:evenodd;clip-rule:evenodd;stroke-linejoin:round;stroke-miterlimit:2;">
    <g id="Layer1" transform="matrix(7.86526,0,0,7.85154,-1247.22,-2457.45)">
        <g transform="matrix(37.5367,0,0,28.8789,-442.229,-9966.07)">
            <path d="M36.008,370.467L36.008,381.981L16.006,381.981L36.008,370.467Z" style="fill:rgb(206,169,209);"/>
        </g>
        <g transform="matrix(2.08333,0,0,2.08333,125.239,269.365)">
            <path d="M16,381.97L376.401,222.36L376.401,20.94L16,381.97Z" style="fill:rgb(197,151,212);"/>
        </g>
        <g transform="matrix(2.08333,0,0,2.08333,125.239,269.365)">
            <path d="M16,381.97L376.401,20.94L175.167,20.94L16,381.97Z" style="fill:rgb(111,53,130);"/>
        </g>
        <g transform="matrix(2.08333,0,0,2.08333,125.239,269.365)">
            <path d="M16,381.97L175.167,20.94L16,20.94L16,381.97Z" style="fill:rgb(82,50,120);"/>
        </g>
    </g>
    <g transform="matrix(3.164,0,0,3.164,-1108.68,-996.678)">
        <g id="Text">
            <g>
                <g transform="matrix(288,0,0,288,617.862,1031.09)">
                    <path d="M0.038,-0C0.038,-0.03 0.04,-0.058 0.045,-0.082C0.05,-0.106 0.058,-0.129 0.07,-0.15C0.081,-0.171 0.097,-0.19 0.117,-0.209C0.138,-0.228 0.164,-0.246 0.195,-0.263C0.222,-0.278 0.246,-0.291 0.267,-0.302C0.288,-0.313 0.305,-0.324 0.32,-0.333C0.334,-0.342 0.345,-0.352 0.352,-0.362C0.359,-0.372 0.363,-0.383 0.363,-0.396C0.363,-0.409 0.359,-0.422 0.352,-0.433C0.345,-0.445 0.334,-0.454 0.321,-0.461C0.308,-0.468 0.291,-0.471 0.271,-0.471C0.255,-0.471 0.24,-0.469 0.227,-0.465C0.213,-0.461 0.2,-0.455 0.189,-0.448C0.177,-0.441 0.166,-0.433 0.156,-0.424C0.146,-0.414 0.137,-0.405 0.129,-0.395L0.044,-0.493C0.053,-0.502 0.066,-0.513 0.082,-0.524C0.097,-0.535 0.116,-0.545 0.138,-0.555C0.159,-0.564 0.183,-0.572 0.21,-0.579C0.236,-0.585 0.264,-0.588 0.294,-0.588C0.339,-0.588 0.378,-0.581 0.41,-0.566C0.442,-0.552 0.467,-0.532 0.484,-0.506C0.5,-0.48 0.509,-0.45 0.509,-0.416C0.509,-0.392 0.505,-0.371 0.496,-0.353C0.487,-0.335 0.476,-0.318 0.463,-0.305C0.45,-0.291 0.435,-0.278 0.42,-0.267C0.404,-0.257 0.389,-0.247 0.374,-0.239C0.353,-0.228 0.335,-0.218 0.318,-0.209C0.301,-0.2 0.287,-0.191 0.274,-0.182C0.261,-0.172 0.25,-0.163 0.241,-0.154C0.231,-0.144 0.222,-0.133 0.215,-0.121L0.52,-0.121L0.52,-0L0.038,-0Z" style="fill:white;fill-rule:nonzero;"/>
                </g>
                <g transform="matrix(288,0,0,288,780.294,1031.09)">
                    <path d="M0.565,-0.289C0.565,-0.231 0.554,-0.179 0.532,-0.134C0.509,-0.089 0.478,-0.054 0.44,-0.028C0.401,-0.003 0.356,0.01 0.307,0.01C0.258,0.01 0.214,-0.003 0.174,-0.028C0.136,-0.054 0.105,-0.089 0.083,-0.134C0.06,-0.179 0.049,-0.231 0.049,-0.289C0.049,-0.346 0.06,-0.398 0.083,-0.443C0.105,-0.488 0.136,-0.523 0.174,-0.549C0.214,-0.575 0.258,-0.588 0.307,-0.588C0.356,-0.588 0.401,-0.575 0.44,-0.549C0.478,-0.523 0.509,-0.488 0.532,-0.443C0.554,-0.398 0.565,-0.346 0.565,-0.289ZM0.43,-0.289C0.43,-0.324 0.425,-0.354 0.414,-0.381C0.404,-0.407 0.39,-0.428 0.371,-0.443C0.352,-0.458 0.331,-0.465 0.307,-0.465C0.282,-0.465 0.261,-0.458 0.242,-0.443C0.223,-0.428 0.209,-0.407 0.199,-0.381C0.188,-0.354 0.183,-0.324 0.183,-0.289C0.183,-0.253 0.188,-0.223 0.199,-0.197C0.209,-0.171 0.223,-0.15 0.242,-0.135C0.261,-0.12 0.282,-0.113 0.307,-0.113C0.331,-0.113 0.352,-0.12 0.371,-0.135C0.389,-0.15 0.403,-0.171 0.414,-0.197C0.425,-0.224 0.43,-0.254 0.43,-0.289Z" style="fill:white;fill-rule:nonzero;"/>
                </g>
                <g transform="matrix(288,0,0,288,957.126,1031.09)">
                    <path d="M0.038,-0C0.038,-0.03 0.04,-0.058 0.045,-0.082C0.05,-0.106 0.058,-0.129 0.07,-0.15C0.081,-0.171 0.097,-0.19 0.117,-0.209C0.138,-0.228 0.164,-0.246 0.195,-0.263C0.222,-0.278 0.246,-0.291 0.267,-0.302C0.288,-0.313 0.305,-0.324 0.32,-0.333C0.334,-0.342 0.345,-0.352 0.352,-0.362C0.359,-0.372 0.363,-0.383 0.363,-0.396C0.363,-0.409 0.359,-0.422 0.352,-0.433C0.345,-0.445 0.334,-0.454 0.321,-0.461C0.308,-0.468 0.291,-0.471 0.271,-0.471C0.255,-0.471 0.24,-0.469 0.227,-0.465C0.213,-0.461 0.2,-0.455 0.189,-0.448C0.177,-0.441 0.166,-0.433 0.156,-0.424C0.146,-0.414 0.137,-0.405 0.129,-0.395L0.044,-0.493C0.053,-0.502 0.066,-0.513 0.082,-0.524C0.097,-0.535 0.116,-0.545 0.138,-0.555C0.159,-0.564 0.183,-0.572 0.21,-0.579C0.236,-0.585 0.264,-0.588 0.294,-0.588C0.339,-0.588 0.378,-0.581 0.41,-0.566C0.442,-0.552 0.467,-0.532 0.484,-0.506C0.5,-0.48 0.509,-0.45 0.509,-0.416C0.509,-0.392 0.505,-0.371 0.496,-0.353C0.487,-0.335 0.476,-0.318 0.463,-0.305C0.45,-0.291 0.435,-0.278 0.42,-0.267C0.404,-0.257 0.389,-0.247 0.374,-0.239C0.353,-0.228 0.335,-0.218 0.318,-0.209C0.301,-0.2 0.287,-0.191 0.274,-0.182C0.261,-0.172 0.25,-0.163 0.241,-0.154C0.231,-0.144 0.222,-0.133 0.215,-0.121L0.52,-0.121L0.52,-0L0.038,-0Z" style="fill:white;fill-rule:nonzero;"/>
                </g>
                <g transform="matrix(288,0,0,288,1119.56,1031.09)">
                    <path d="M0.312,0.127L0.312,-0.022L0.02,-0.022L0.02,-0.141L0.355,-0.571L0.446,-0.571L0.446,-0.142L0.534,-0.142L0.534,-0.022L0.446,-0.022L0.446,0.127L0.312,0.127ZM0.154,-0.142L0.327,-0.142L0.327,-0.368L0.154,-0.142Z" style="fill:white;fill-rule:nonzero;"/>
                </g>
                <g transform="matrix(288,0,0,288,1353.13,1031.09)">
                    <path d="M0.212,-0.456L0.212,-0L0.074,-0L0.074,-0.71L0.184,-0.71L0.551,-0.242L0.551,-0.709L0.689,-0.709L0.689,-0L0.574,-0L0.212,-0.456Z" style="fill:white;fill-rule:nonzero;"/>
                </g>
                <g transform="matrix(288,0,0,288,1572.87,1031.09)">
                    <path d="M0.267,-0.71L0.407,-0.71L0.668,-0L0.526,-0L0.467,-0.177L0.206,-0.177L0.147,-0L0.005,-0L0.267,-0.71ZM0.435,-0.274L0.337,-0.567L0.239,-0.274L0.435,-0.274Z" style="fill:white;fill-rule:nonzero;"/>
                </g>
                <g transform="matrix(288,0,0,288,1763.81,1031.09)">
                    <path d="M0.497,-0.524C0.492,-0.529 0.484,-0.535 0.471,-0.543C0.459,-0.551 0.444,-0.559 0.427,-0.566C0.409,-0.573 0.39,-0.58 0.369,-0.586C0.348,-0.591 0.327,-0.594 0.306,-0.594C0.269,-0.594 0.241,-0.587 0.222,-0.573C0.203,-0.559 0.193,-0.54 0.193,-0.514C0.193,-0.495 0.199,-0.48 0.211,-0.469C0.223,-0.457 0.241,-0.448 0.265,-0.44C0.289,-0.432 0.319,-0.423 0.355,-0.414C0.402,-0.403 0.442,-0.389 0.476,-0.373C0.511,-0.356 0.537,-0.335 0.556,-0.309C0.574,-0.283 0.583,-0.248 0.583,-0.205C0.583,-0.167 0.576,-0.135 0.562,-0.108C0.548,-0.081 0.529,-0.059 0.504,-0.043C0.479,-0.026 0.451,-0.014 0.42,-0.006C0.389,0.001 0.355,0.005 0.32,0.005C0.285,0.005 0.249,0.001 0.214,-0.006C0.179,-0.013 0.145,-0.024 0.112,-0.038C0.079,-0.051 0.049,-0.068 0.022,-0.087L0.083,-0.206C0.089,-0.2 0.1,-0.192 0.115,-0.183C0.13,-0.173 0.149,-0.163 0.171,-0.154C0.193,-0.144 0.217,-0.136 0.243,-0.129C0.269,-0.122 0.295,-0.119 0.322,-0.119C0.359,-0.119 0.388,-0.125 0.407,-0.138C0.426,-0.15 0.436,-0.168 0.436,-0.191C0.436,-0.212 0.428,-0.229 0.413,-0.241C0.398,-0.253 0.376,-0.263 0.349,-0.272C0.322,-0.281 0.289,-0.291 0.252,-0.302C0.207,-0.314 0.17,-0.328 0.14,-0.344C0.11,-0.36 0.088,-0.379 0.073,-0.403C0.058,-0.427 0.051,-0.457 0.051,-0.493C0.051,-0.541 0.063,-0.582 0.086,-0.615C0.109,-0.648 0.14,-0.673 0.179,-0.69C0.218,-0.707 0.262,-0.715 0.31,-0.715C0.343,-0.715 0.375,-0.711 0.405,-0.704C0.434,-0.697 0.462,-0.687 0.488,-0.675C0.514,-0.663 0.537,-0.65 0.558,-0.636L0.497,-0.524Z" style="fill:white;fill-rule:nonzero;"/>
                </g>
                <g transform="matrix(288,0,0,288,372.486,1319.09)">
                    <path d="M0.375,0.005C0.318,0.005 0.27,-0.005 0.231,-0.024C0.191,-0.043 0.159,-0.069 0.135,-0.102C0.11,-0.135 0.092,-0.173 0.081,-0.216C0.07,-0.258 0.064,-0.302 0.064,-0.348L0.064,-0.71L0.202,-0.71L0.202,-0.348C0.202,-0.319 0.205,-0.29 0.211,-0.263C0.216,-0.235 0.226,-0.21 0.239,-0.188C0.252,-0.166 0.27,-0.149 0.292,-0.136C0.314,-0.123 0.341,-0.117 0.374,-0.117C0.407,-0.117 0.435,-0.124 0.458,-0.137C0.48,-0.15 0.498,-0.167 0.51,-0.189C0.524,-0.211 0.533,-0.236 0.539,-0.264C0.545,-0.291 0.548,-0.319 0.548,-0.348L0.548,-0.71L0.685,-0.71L0.685,-0.348C0.685,-0.299 0.679,-0.254 0.668,-0.211C0.656,-0.168 0.637,-0.131 0.613,-0.099C0.588,-0.066 0.555,-0.041 0.516,-0.023C0.477,-0.004 0.43,0.005 0.375,0.005Z" style="fill:white;fill-rule:nonzero;"/>
                </g>
                <g transform="matrix(288,0,0,288,585.894,1319.09)">
                    <path d="M0.548,-0L0.414,-0L0.414,-0.29C0.414,-0.331 0.407,-0.361 0.392,-0.38C0.377,-0.399 0.357,-0.409 0.331,-0.409C0.313,-0.409 0.295,-0.404 0.277,-0.395C0.258,-0.386 0.242,-0.374 0.227,-0.358C0.212,-0.342 0.202,-0.323 0.195,-0.303L0.195,-0L0.061,-0L0.061,-0.519L0.182,-0.519L0.182,-0.422C0.195,-0.445 0.212,-0.464 0.233,-0.479C0.254,-0.495 0.278,-0.506 0.305,-0.515C0.332,-0.523 0.36,-0.527 0.39,-0.527C0.423,-0.527 0.45,-0.521 0.47,-0.51C0.492,-0.498 0.507,-0.483 0.519,-0.463C0.53,-0.444 0.537,-0.422 0.542,-0.397C0.546,-0.373 0.548,-0.348 0.548,-0.323L0.548,-0Z" style="fill:white;fill-rule:nonzero;"/>
                </g>
                <g transform="matrix(288,0,0,288,759.846,1319.09)">
                    <path d="M0.254,0.01C0.209,0.01 0.167,0.003 0.126,-0.012C0.085,-0.027 0.05,-0.048 0.021,-0.077L0.069,-0.164C0.1,-0.139 0.131,-0.12 0.162,-0.108C0.192,-0.096 0.221,-0.09 0.249,-0.09C0.275,-0.09 0.296,-0.095 0.312,-0.103C0.327,-0.113 0.335,-0.126 0.335,-0.144C0.335,-0.157 0.331,-0.166 0.322,-0.173C0.313,-0.18 0.301,-0.186 0.284,-0.191C0.268,-0.197 0.248,-0.203 0.225,-0.209C0.186,-0.222 0.154,-0.234 0.128,-0.246C0.102,-0.258 0.083,-0.272 0.07,-0.291C0.057,-0.309 0.05,-0.332 0.05,-0.36C0.05,-0.394 0.059,-0.424 0.077,-0.449C0.094,-0.473 0.119,-0.492 0.151,-0.506C0.182,-0.52 0.219,-0.527 0.262,-0.527C0.299,-0.527 0.335,-0.521 0.368,-0.509C0.401,-0.498 0.432,-0.479 0.459,-0.453L0.405,-0.368C0.378,-0.389 0.353,-0.404 0.329,-0.413C0.305,-0.423 0.281,-0.428 0.256,-0.428C0.242,-0.428 0.229,-0.426 0.217,-0.423C0.204,-0.42 0.194,-0.414 0.187,-0.407C0.179,-0.399 0.175,-0.389 0.175,-0.375C0.175,-0.362 0.179,-0.353 0.186,-0.346C0.193,-0.339 0.203,-0.333 0.218,-0.328C0.232,-0.322 0.249,-0.316 0.27,-0.31C0.312,-0.298 0.347,-0.286 0.377,-0.273C0.406,-0.261 0.427,-0.246 0.442,-0.228C0.457,-0.21 0.464,-0.185 0.464,-0.153C0.464,-0.102 0.445,-0.062 0.407,-0.033C0.369,-0.004 0.318,0.01 0.254,0.01Z" style="fill:white;fill-rule:nonzero;"/>
                </g>
                <g transform="matrix(288,0,0,288,902.118,1319.09)">
                    <path d="M0.304,0.01C0.262,0.01 0.224,0.003 0.19,-0.011C0.156,-0.025 0.127,-0.045 0.103,-0.07C0.079,-0.094 0.061,-0.123 0.048,-0.155C0.035,-0.187 0.028,-0.22 0.028,-0.256C0.028,-0.305 0.039,-0.351 0.062,-0.392C0.084,-0.432 0.116,-0.465 0.158,-0.49C0.199,-0.515 0.248,-0.527 0.305,-0.527C0.362,-0.527 0.411,-0.515 0.452,-0.49C0.493,-0.465 0.524,-0.432 0.546,-0.392C0.567,-0.351 0.578,-0.307 0.578,-0.261C0.578,-0.253 0.578,-0.245 0.577,-0.236C0.576,-0.228 0.576,-0.221 0.575,-0.216L0.17,-0.216C0.173,-0.19 0.181,-0.167 0.194,-0.148C0.206,-0.128 0.223,-0.113 0.244,-0.103C0.264,-0.093 0.286,-0.088 0.309,-0.088C0.336,-0.088 0.361,-0.095 0.385,-0.108C0.408,-0.121 0.424,-0.138 0.433,-0.159L0.548,-0.127C0.535,-0.1 0.517,-0.077 0.494,-0.056C0.47,-0.035 0.442,-0.019 0.41,-0.008C0.378,0.004 0.343,0.01 0.304,0.01ZM0.167,-0.301L0.441,-0.301C0.438,-0.327 0.431,-0.35 0.419,-0.369C0.406,-0.388 0.39,-0.403 0.37,-0.414C0.35,-0.425 0.328,-0.43 0.303,-0.43C0.279,-0.43 0.257,-0.425 0.237,-0.414C0.218,-0.403 0.202,-0.388 0.19,-0.369C0.177,-0.35 0.17,-0.327 0.167,-0.301Z" style="fill:white;fill-rule:nonzero;"/>
                </g>
                <g transform="matrix(288,0,0,288,1074.63,1319.09)">
                    <path d="M0.304,0.01C0.262,0.01 0.224,0.003 0.19,-0.011C0.156,-0.025 0.127,-0.045 0.103,-0.07C0.079,-0.094 0.061,-0.123 0.048,-0.155C0.035,-0.187 0.028,-0.22 0.028,-0.256C0.028,-0.305 0.039,-0.351 0.062,-0.392C0.084,-0.432 0.116,-0.465 0.158,-0.49C0.199,-0.515 0.248,-0.527 0.305,-0.527C0.362,-0.527 0.411,-0.515 0.452,-0.49C0.493,-0.465 0.524,-0.432 0.546,-0.392C0.567,-0.351 0.578,-0.307 0.578,-0.261C0.578,-0.253 0.578,-0.245 0.577,-0.236C0.576,-0.228 0.576,-0.221 0.575,-0.216L0.17,-0.216C0.173,-0.19 0.181,-0.167 0.194,-0.148C0.206,-0.128 0.223,-0.113 0.244,-0.103C0.264,-0.093 0.286,-0.088 0.309,-0.088C0.336,-0.088 0.361,-0.095 0.385,-0.108C0.408,-0.121 0.424,-0.138 0.433,-0.159L0.548,-0.127C0.535,-0.1 0.517,-0.077 0.494,-0.056C0.47,-0.035 0.442,-0.019 0.41,-0.008C0.378,0.004 0.343,0.01 0.304,0.01ZM0.167,-0.301L0.441,-0.301C0.438,-0.327 0.431,-0.35 0.419,-0.369C0.406,-0.388 0.39,-0.403 0.37,-0.414C0.35,-0.425 0.328,-0.43 0.303,-0.43C0.279,-0.43 0.257,-0.425 0.237,-0.414C0.218,-0.403 0.202,-0.388 0.19,-0.369C0.177,-0.35 0.17,-0.327 0.167,-0.301Z" style="fill:white;fill-rule:nonzero;"/>
                </g>
                <g transform="matrix(288,0,0,288,1247.14,1319.09)">
                    <path d="M0.548,-0L0.414,-0L0.414,-0.29C0.414,-0.331 0.407,-0.361 0.392,-0.38C0.377,-0.399 0.357,-0.409 0.331,-0.409C0.313,-0.409 0.295,-0.404 0.277,-0.395C0.258,-0.386 0.242,-0.374 0.227,-0.358C0.212,-0.342 0.202,-0.323 0.195,-0.303L0.195,-0L0.061,-0L0.061,-0.519L0.182,-0.519L0.182,-0.422C0.195,-0.445 0.212,-0.464 0.233,-0.479C0.254,-0.495 0.278,-0.506 0.305,-0.515C0.332,-0.523 0.36,-0.527 0.39,-0.527C0.423,-0.527 0.45,-0.521 0.47,-0.51C0.492,-0.498 0.507,-0.483 0.519,-0.463C0.53,-0.444 0.537,-0.422 0.542,-0.397C0.546,-0.373 0.548,-0.348 0.548,-0.323L0.548,-0Z" style="fill:white;fill-rule:nonzero;"/>
                </g>
                <g transform="matrix(288,0,0,288,1421.09,1319.09)">
                    <rect x="0.058" y="-0.335" width="0.303" height="0.121" style="fill:white;fill-rule:nonzero;"/>
                </g>
                <g transform="matrix(288,0,0,288,1541.48,1319.09)">
                    <path d="M0.074,-0L0.074,-0.71L0.332,-0.71C0.409,-0.71 0.474,-0.694 0.526,-0.663C0.578,-0.631 0.617,-0.588 0.643,-0.535C0.669,-0.481 0.682,-0.421 0.682,-0.356C0.682,-0.284 0.668,-0.221 0.639,-0.168C0.61,-0.115 0.57,-0.073 0.518,-0.044C0.465,-0.015 0.403,-0 0.332,-0L0.074,-0ZM0.543,-0.356C0.543,-0.402 0.535,-0.443 0.518,-0.477C0.501,-0.513 0.477,-0.54 0.446,-0.56C0.415,-0.579 0.377,-0.589 0.332,-0.589L0.212,-0.589L0.212,-0.121L0.332,-0.121C0.377,-0.121 0.416,-0.131 0.447,-0.152C0.478,-0.172 0.502,-0.2 0.519,-0.235C0.535,-0.271 0.543,-0.311 0.543,-0.356Z" style="fill:white;fill-rule:nonzero;"/>
                </g>
                <g transform="matrix(288,0,0,288,1745.96,1319.09)">
                    <path d="M0.025,-0.153C0.025,-0.187 0.035,-0.216 0.054,-0.241C0.073,-0.267 0.099,-0.286 0.133,-0.3C0.167,-0.314 0.206,-0.321 0.25,-0.321C0.272,-0.321 0.294,-0.319 0.317,-0.316C0.34,-0.313 0.359,-0.307 0.376,-0.3L0.376,-0.328C0.376,-0.361 0.366,-0.386 0.346,-0.403C0.327,-0.421 0.298,-0.43 0.259,-0.43C0.23,-0.43 0.203,-0.425 0.177,-0.415C0.151,-0.405 0.124,-0.39 0.095,-0.371L0.052,-0.459C0.087,-0.482 0.122,-0.499 0.159,-0.51C0.195,-0.521 0.233,-0.527 0.273,-0.527C0.348,-0.527 0.406,-0.509 0.448,-0.472C0.489,-0.435 0.51,-0.382 0.51,-0.314L0.51,-0.149C0.51,-0.136 0.513,-0.126 0.518,-0.12C0.523,-0.114 0.531,-0.11 0.542,-0.109L0.542,-0C0.53,0.002 0.519,0.004 0.509,0.005C0.5,0.006 0.492,0.007 0.485,0.007C0.458,0.007 0.438,0.001 0.425,-0.011C0.411,-0.023 0.402,-0.038 0.399,-0.055L0.396,-0.082C0.373,-0.053 0.345,-0.03 0.311,-0.014C0.277,0.002 0.242,0.01 0.207,0.01C0.172,0.01 0.141,0.003 0.114,-0.011C0.086,-0.025 0.064,-0.045 0.049,-0.07C0.033,-0.094 0.025,-0.122 0.025,-0.153ZM0.351,-0.127C0.358,-0.135 0.364,-0.143 0.369,-0.15C0.374,-0.158 0.376,-0.165 0.376,-0.172L0.376,-0.224C0.36,-0.23 0.343,-0.235 0.324,-0.239C0.305,-0.242 0.288,-0.244 0.271,-0.244C0.236,-0.244 0.208,-0.237 0.186,-0.222C0.163,-0.207 0.152,-0.188 0.152,-0.164C0.152,-0.151 0.156,-0.139 0.163,-0.127C0.17,-0.115 0.181,-0.106 0.195,-0.099C0.209,-0.092 0.226,-0.088 0.245,-0.088C0.265,-0.088 0.285,-0.092 0.304,-0.099C0.323,-0.107 0.339,-0.116 0.351,-0.127Z" style="fill:white;fill-rule:nonzero;"/>
                </g>
                <g transform="matrix(288,0,0,288,1909.83,1319.09)">
                    <path d="M0.375,-0.026C0.364,-0.021 0.35,-0.016 0.334,-0.01C0.318,-0.004 0.301,0.001 0.282,0.004C0.264,0.008 0.246,0.01 0.227,0.01C0.202,0.01 0.18,0.006 0.159,-0.003C0.138,-0.011 0.122,-0.025 0.11,-0.044C0.097,-0.063 0.091,-0.087 0.091,-0.118L0.091,-0.416L0.022,-0.416L0.022,-0.519L0.091,-0.519L0.091,-0.689L0.225,-0.689L0.225,-0.519L0.335,-0.519L0.335,-0.416L0.225,-0.416L0.225,-0.163C0.226,-0.146 0.231,-0.133 0.24,-0.125C0.249,-0.117 0.261,-0.113 0.275,-0.113C0.289,-0.113 0.303,-0.115 0.316,-0.12C0.329,-0.125 0.34,-0.129 0.348,-0.132L0.375,-0.026Z" style="fill:white;fill-rule:nonzero;"/>
                </g>
                <g transform="matrix(288,0,0,288,2020.42,1319.09)">
                    <path d="M0.025,-0.153C0.025,-0.187 0.035,-0.216 0.054,-0.241C0.073,-0.267 0.099,-0.286 0.133,-0.3C0.167,-0.314 0.206,-0.321 0.25,-0.321C0.272,-0.321 0.294,-0.319 0.317,-0.316C0.34,-0.313 0.359,-0.307 0.376,-0.3L0.376,-0.328C0.376,-0.361 0.366,-0.386 0.346,-0.403C0.327,-0.421 0.298,-0.43 0.259,-0.43C0.23,-0.43 0.203,-0.425 0.177,-0.415C0.151,-0.405 0.124,-0.39 0.095,-0.371L0.052,-0.459C0.087,-0.482 0.122,-0.499 0.159,-0.51C0.195,-0.521 0.233,-0.527 0.273,-0.527C0.348,-0.527 0.406,-0.509 0.448,-0.472C0.489,-0.435 0.51,-0.382 0.51,-0.314L0.51,-0.149C0.51,-0.136 0.513,-0.126 0.518,-0.12C0.523,-0.114 0.531,-0.11 0.542,-0.109L0.542,-0C0.53,0.002 0.519,0.004 0.509,0.005C0.5,0.006 0.492,0.007 0.485,0.007C0.458,0.007 0.438,0.001 0.425,-0.011C0.411,-0.023 0.402,-0.038 0.399,-0.055L0.396,-0.082C0.373,-0.053 0.345,-0.03 0.311,-0.014C0.277,0.002 0.242,0.01 0.207,0.01C0.172,0.01 0.141,0.003 0.114,-0.011C0.086,-0.025 0.064,-0.045 0.049,-0.07C0.033,-0.094 0.025,-0.122 0.025,-0.153ZM0.351,-0.127C0.358,-0.135 0.364,-0.143 0.369,-0.15C0.374,-0.158 0.376,-0.165 0.376,-0.172L0.376,-0.224C0.36,-0.23 0.343,-0.235 0.324,-0.239C0.305,-0.242 0.288,-0.244 0.271,-0.244C0.236,-0.244 0.208,-0.237 0.186,-0.222C0.163,-0.207 0.152,-0.188 0.152,-0.164C0.152,-0.151 0.156,-0.139 0.163,-0.127C0.17,-0.115 0.181,-0.106 0.195,-0.099C0.209,-0.092 0.226,-0.088 0.245,-0.088C0.265,-0.088 0.285,-0.092 0.304,-0.099C0.323,-0.107 0.339,-0.116 0.351,-0.127Z" style="fill:white;fill-rule:nonzero;"/>
                </g>
                <g transform="matrix(288,0,0,288,568.614,1607.09)">
                    <path d="M0.031,-0.361C0.031,-0.404 0.039,-0.447 0.055,-0.489C0.07,-0.53 0.093,-0.568 0.123,-0.603C0.153,-0.637 0.19,-0.664 0.233,-0.685C0.276,-0.705 0.326,-0.715 0.381,-0.715C0.446,-0.715 0.503,-0.701 0.551,-0.672C0.598,-0.643 0.634,-0.606 0.657,-0.56L0.551,-0.487C0.539,-0.514 0.523,-0.535 0.504,-0.551C0.485,-0.566 0.464,-0.577 0.442,-0.584C0.42,-0.59 0.398,-0.593 0.377,-0.593C0.342,-0.593 0.312,-0.586 0.286,-0.572C0.261,-0.558 0.239,-0.54 0.222,-0.517C0.205,-0.494 0.192,-0.469 0.184,-0.441C0.175,-0.413 0.171,-0.385 0.171,-0.357C0.171,-0.326 0.176,-0.296 0.186,-0.267C0.196,-0.237 0.21,-0.212 0.229,-0.19C0.247,-0.167 0.269,-0.15 0.295,-0.137C0.32,-0.124 0.348,-0.117 0.379,-0.117C0.401,-0.117 0.423,-0.121 0.446,-0.128C0.469,-0.135 0.49,-0.147 0.509,-0.163C0.528,-0.179 0.543,-0.2 0.554,-0.225L0.667,-0.16C0.653,-0.125 0.63,-0.095 0.599,-0.07C0.567,-0.045 0.531,-0.027 0.492,-0.014C0.453,-0.001 0.414,0.005 0.375,0.005C0.324,0.005 0.278,-0.006 0.236,-0.027C0.194,-0.048 0.158,-0.076 0.128,-0.111C0.097,-0.146 0.074,-0.185 0.057,-0.229C0.04,-0.272 0.031,-0.316 0.031,-0.361Z" style="fill:white;fill-rule:nonzero;"/>
                </g>
                <g transform="matrix(288,0,0,288,766.182,1607.09)">
                    <path d="M0.548,-0L0.414,-0L0.414,-0.29C0.414,-0.33 0.406,-0.36 0.391,-0.379C0.375,-0.399 0.353,-0.409 0.326,-0.409C0.31,-0.409 0.293,-0.404 0.275,-0.395C0.257,-0.386 0.241,-0.374 0.227,-0.358C0.212,-0.342 0.202,-0.323 0.195,-0.303L0.195,-0L0.061,-0L0.061,-0.73L0.195,-0.73L0.195,-0.422C0.214,-0.455 0.241,-0.481 0.274,-0.499C0.307,-0.518 0.344,-0.527 0.383,-0.527C0.417,-0.527 0.445,-0.521 0.466,-0.51C0.487,-0.498 0.504,-0.483 0.516,-0.463C0.528,-0.444 0.536,-0.422 0.541,-0.398C0.546,-0.374 0.548,-0.349 0.548,-0.323L0.548,-0Z" style="fill:white;fill-rule:nonzero;"/>
                </g>
                <g transform="matrix(288,0,0,288,940.134,1607.09)">
                    <path d="M0.025,-0.153C0.025,-0.187 0.035,-0.216 0.054,-0.241C0.073,-0.267 0.099,-0.286 0.133,-0.3C0.167,-0.314 0.206,-0.321 0.25,-0.321C0.272,-0.321 0.294,-0.319 0.317,-0.316C0.34,-0.313 0.359,-0.307 0.376,-0.3L0.376,-0.328C0.376,-0.361 0.366,-0.386 0.346,-0.403C0.327,-0.421 0.298,-0.43 0.259,-0.43C0.23,-0.43 0.203,-0.425 0.177,-0.415C0.151,-0.405 0.124,-0.39 0.095,-0.371L0.052,-0.459C0.087,-0.482 0.122,-0.499 0.159,-0.51C0.195,-0.521 0.233,-0.527 0.273,-0.527C0.348,-0.527 0.406,-0.509 0.448,-0.472C0.489,-0.435 0.51,-0.382 0.51,-0.314L0.51,-0.149C0.51,-0.136 0.513,-0.126 0.518,-0.12C0.523,-0.114 0.531,-0.11 0.542,-0.109L0.542,-0C0.53,0.002 0.519,0.004 0.509,0.005C0.5,0.006 0.492,0.007 0.485,0.007C0.458,0.007 0.438,0.001 0.425,-0.011C0.411,-0.023 0.402,-0.038 0.399,-0.055L0.396,-0.082C0.373,-0.053 0.345,-0.03 0.311,-0.014C0.277,0.002 0.242,0.01 0.207,0.01C0.172,0.01 0.141,0.003 0.114,-0.011C0.086,-0.025 0.064,-0.045 0.049,-0.07C0.033,-0.094 0.025,-0.122 0.025,-0.153ZM0.351,-0.127C0.358,-0.135 0.364,-0.143 0.369,-0.15C0.374,-0.158 0.376,-0.165 0.376,-0.172L0.376,-0.224C0.36,-0.23 0.343,-0.235 0.324,-0.239C0.305,-0.242 0.288,-0.244 0.271,-0.244C0.236,-0.244 0.208,-0.237 0.186,-0.222C0.163,-0.207 0.152,-0.188 0.152,-0.164C0.152,-0.151 0.156,-0.139 0.163,-0.127C0.17,-0.115 0.181,-0.106 0.195,-0.099C0.209,-0.092 0.226,-0.088 0.245,-0.088C0.265,-0.088 0.285,-0.092 0.304,-0.099C0.323,-0.107 0.339,-0.116 0.351,-0.127Z" style="fill:white;fill-rule:nonzero;"/>
                </g>
                <g transform="matrix(288,0,0,288,1105.45,1607.09)">
                    <path d="M0.06,-0.73L0.194,-0.73L0.194,-0.166C0.194,-0.142 0.198,-0.126 0.206,-0.118C0.214,-0.109 0.225,-0.105 0.239,-0.105C0.25,-0.105 0.261,-0.106 0.272,-0.109C0.283,-0.112 0.293,-0.115 0.302,-0.119L0.32,-0.017C0.302,-0.008 0.281,-0.002 0.257,0.003C0.233,0.008 0.211,0.01 0.192,0.01C0.15,0.01 0.117,-0.001 0.095,-0.024C0.071,-0.046 0.06,-0.078 0.06,-0.119L0.06,-0.73Z" style="fill:white;fill-rule:nonzero;"/>
                </g>
                <g transform="matrix(288,0,0,288,1196.74,1607.09)">
                    <path d="M0.06,-0.73L0.194,-0.73L0.194,-0.166C0.194,-0.142 0.198,-0.126 0.206,-0.118C0.214,-0.109 0.225,-0.105 0.239,-0.105C0.25,-0.105 0.261,-0.106 0.272,-0.109C0.283,-0.112 0.293,-0.115 0.302,-0.119L0.32,-0.017C0.302,-0.008 0.281,-0.002 0.257,0.003C0.233,0.008 0.211,0.01 0.192,0.01C0.15,0.01 0.117,-0.001 0.095,-0.024C0.071,-0.046 0.06,-0.078 0.06,-0.119L0.06,-0.73Z" style="fill:white;fill-rule:nonzero;"/>
                </g>
                <g transform="matrix(288,0,0,288,1288.04,1607.09)">
                    <path d="M0.304,0.01C0.262,0.01 0.224,0.003 0.19,-0.011C0.156,-0.025 0.127,-0.045 0.103,-0.07C0.079,-0.094 0.061,-0.123 0.048,-0.155C0.035,-0.187 0.028,-0.22 0.028,-0.256C0.028,-0.305 0.039,-0.351 0.062,-0.392C0.084,-0.432 0.116,-0.465 0.158,-0.49C0.199,-0.515 0.248,-0.527 0.305,-0.527C0.362,-0.527 0.411,-0.515 0.452,-0.49C0.493,-0.465 0.524,-0.432 0.546,-0.392C0.567,-0.351 0.578,-0.307 0.578,-0.261C0.578,-0.253 0.578,-0.245 0.577,-0.236C0.576,-0.228 0.576,-0.221 0.575,-0.216L0.17,-0.216C0.173,-0.19 0.181,-0.167 0.194,-0.148C0.206,-0.128 0.223,-0.113 0.244,-0.103C0.264,-0.093 0.286,-0.088 0.309,-0.088C0.336,-0.088 0.361,-0.095 0.385,-0.108C0.408,-0.121 0.424,-0.138 0.433,-0.159L0.548,-0.127C0.535,-0.1 0.517,-0.077 0.494,-0.056C0.47,-0.035 0.442,-0.019 0.41,-0.008C0.378,0.004 0.343,0.01 0.304,0.01ZM0.167,-0.301L0.441,-0.301C0.438,-0.327 0.431,-0.35 0.419,-0.369C0.406,-0.388 0.39,-0.403 0.37,-0.414C0.35,-0.425 0.328,-0.43 0.303,-0.43C0.279,-0.43 0.257,-0.425 0.237,-0.414C0.218,-0.403 0.202,-0.388 0.19,-0.369C0.177,-0.35 0.17,-0.327 0.167,-0.301Z" style="fill:white;fill-rule:nonzero;"/>
                </g>
                <g transform="matrix(288,0,0,288,1460.55,1607.09)">
                    <path d="M0.548,-0L0.414,-0L0.414,-0.29C0.414,-0.331 0.407,-0.361 0.392,-0.38C0.377,-0.399 0.357,-0.409 0.331,-0.409C0.313,-0.409 0.295,-0.404 0.277,-0.395C0.258,-0.386 0.242,-0.374 0.227,-0.358C0.212,-0.342 0.202,-0.323 0.195,-0.303L0.195,-0L0.061,-0L0.061,-0.519L0.182,-0.519L0.182,-0.422C0.195,-0.445 0.212,-0.464 0.233,-0.479C0.254,-0.495 0.278,-0.506 0.305,-0.515C0.332,-0.523 0.36,-0.527 0.39,-0.527C0.423,-0.527 0.45,-0.521 0.47,-0.51C0.492,-0.498 0.507,-0.483 0.519,-0.463C0.53,-0.444 0.537,-0.422 0.542,-0.397C0.546,-0.373 0.548,-0.348 0.548,-0.323L0.548,-0Z" style="fill:white;fill-rule:nonzero;"/>
                </g>
                <g transform="matrix(288,0,0,288,1634.5,1607.09)">
                    <path d="M0.266,0.01C0.231,0.01 0.2,0.003 0.171,-0.011C0.141,-0.024 0.117,-0.043 0.096,-0.068C0.075,-0.093 0.058,-0.121 0.047,-0.153C0.036,-0.185 0.03,-0.219 0.03,-0.256C0.03,-0.294 0.036,-0.329 0.048,-0.362C0.06,-0.394 0.077,-0.423 0.099,-0.448C0.12,-0.473 0.146,-0.493 0.175,-0.506C0.205,-0.52 0.238,-0.527 0.274,-0.527C0.315,-0.527 0.35,-0.518 0.381,-0.5C0.412,-0.482 0.437,-0.458 0.457,-0.427L0.457,-0.519L0.574,-0.519L0.574,-0.023C0.574,0.028 0.562,0.073 0.537,0.109C0.511,0.146 0.477,0.174 0.433,0.194C0.389,0.213 0.339,0.223 0.283,0.223C0.226,0.223 0.178,0.213 0.139,0.194C0.1,0.175 0.066,0.149 0.038,0.114L0.111,0.043C0.131,0.068 0.156,0.087 0.187,0.101C0.217,0.115 0.249,0.122 0.283,0.122C0.312,0.122 0.338,0.117 0.362,0.107C0.385,0.098 0.404,0.083 0.419,0.062C0.433,0.042 0.44,0.015 0.44,-0.018L0.44,-0.084C0.423,-0.054 0.398,-0.031 0.367,-0.015C0.335,0.002 0.301,0.01 0.266,0.01ZM0.311,-0.097C0.326,-0.097 0.34,-0.099 0.353,-0.104C0.366,-0.109 0.379,-0.115 0.39,-0.123C0.401,-0.131 0.411,-0.141 0.42,-0.152C0.429,-0.163 0.435,-0.174 0.44,-0.185L0.44,-0.311C0.432,-0.331 0.421,-0.349 0.406,-0.365C0.392,-0.38 0.376,-0.392 0.359,-0.4C0.341,-0.409 0.322,-0.413 0.303,-0.413C0.282,-0.413 0.264,-0.409 0.247,-0.4C0.23,-0.391 0.216,-0.379 0.204,-0.363C0.192,-0.348 0.183,-0.33 0.177,-0.311C0.17,-0.292 0.167,-0.272 0.167,-0.251C0.167,-0.23 0.171,-0.21 0.178,-0.191C0.185,-0.173 0.196,-0.156 0.209,-0.142C0.222,-0.128 0.237,-0.117 0.255,-0.109C0.272,-0.101 0.291,-0.097 0.311,-0.097Z" style="fill:white;fill-rule:nonzero;"/>
                </g>
                <g transform="matrix(288,0,0,288,1817.09,1607.09)">
                    <path d="M0.304,0.01C0.262,0.01 0.224,0.003 0.19,-0.011C0.156,-0.025 0.127,-0.045 0.103,-0.07C0.079,-0.094 0.061,-0.123 0.048,-0.155C0.035,-0.187 0.028,-0.22 0.028,-0.256C0.028,-0.305 0.039,-0.351 0.062,-0.392C0.084,-0.432 0.116,-0.465 0.158,-0.49C0.199,-0.515 0.248,-0.527 0.305,-0.527C0.362,-0.527 0.411,-0.515 0.452,-0.49C0.493,-0.465 0.524,-0.432 0.546,-0.392C0.567,-0.351 0.578,-0.307 0.578,-0.261C0.578,-0.253 0.578,-0.245 0.577,-0.236C0.576,-0.228 0.576,-0.221 0.575,-0.216L0.17,-0.216C0.173,-0.19 0.181,-0.167 0.194,-0.148C0.206,-0.128 0.223,-0.113 0.244,-0.103C0.264,-0.093 0.286,-0.088 0.309,-0.088C0.336,-0.088 0.361,-0.095 0.385,-0.108C0.408,-0.121 0.424,-0.138 0.433,-0.159L0.548,-0.127C0.535,-0.1 0.517,-0.077 0.494,-0.056C0.47,-0.035 0.442,-0.019 0.41,-0.008C0.378,0.004 0.343,0.01 0.304,0.01ZM0.167,-0.301L0.441,-0.301C0.438,-0.327 0.431,-0.35 0.419,-0.369C0.406,-0.388 0.39,-0.403 0.37,-0.414C0.35,-0.425 0.328,-0.43 0.303,-0.43C0.279,-0.43 0.257,-0.425 0.237,-0.414C0.218,-0.403 0.202,-0.388 0.19,-0.369C0.177,-0.35 0.17,-0.327 0.167,-0.301Z" style="fill:white;fill-rule:nonzero;"/>
                </g>
            </g>
        </g>
    </g>
</svg>
