<?xml version="1.0" encoding="UTF-8" standalone="no"?>
<!DOCTYPE svg PUBLIC "-//W3C//DTD SVG 1.1//EN" "http://www.w3.org/Graphics/SVG/1.1/DTD/svg11.dtd">
<svg width="100%" height="100%" viewBox="0 0 5906 5906" version="1.1" xmlns="http://www.w3.org/2000/svg" xmlns:xlink="http://www.w3.org/1999/xlink" xml:space="preserve" xmlns:serif="http://www.serif.com/" style="fill-rule:evenodd;clip-rule:evenodd;stroke-linejoin:round;stroke-miterlimit:2;">
    <g id="Layer1" transform="matrix(7.86526,0,0,7.85154,-1247.22,-2457.45)">
        <g transform="matrix(37.5367,0,0,28.8789,-442.229,-9966.07)">
            <path d="M36.008,370.467L36.008,381.981L16.006,381.981L36.008,370.467Z" style="fill:rgb(255,200,103);"/>
        </g>
        <g transform="matrix(2.08333,0,0,2.08333,125.239,269.365)">
            <path d="M16,381.97L376.401,222.36L376.401,20.94L16,381.97Z" style="fill:rgb(255,163,0);"/>
        </g>
        <g transform="matrix(2.08333,0,0,2.08333,125.239,269.365)">
            <path d="M16,381.97L376.401,20.94L175.167,20.94L16,381.97Z" style="fill:rgb(189,121,0);"/>
        </g>
        <g transform="matrix(2.08333,0,0,2.08333,125.239,269.365)">
            <path d="M16,381.97L175.167,20.94L16,20.94L16,381.97Z" style="fill:rgb(147,94,0);"/>
        </g>
    </g>
    <g transform="matrix(3.20147,0,0,3.20147,-3156.33,-1938.45)">
        <g transform="matrix(288,0,0,288,1248.05,1310.72)">
            <path d="M0.04,-0C0.04,-0.028 0.042,-0.054 0.047,-0.078C0.052,-0.102 0.06,-0.125 0.071,-0.147C0.083,-0.168 0.1,-0.189 0.121,-0.208C0.141,-0.227 0.168,-0.246 0.201,-0.263C0.224,-0.277 0.246,-0.289 0.267,-0.299C0.288,-0.31 0.306,-0.32 0.322,-0.33C0.338,-0.341 0.35,-0.352 0.36,-0.364C0.369,-0.376 0.373,-0.39 0.373,-0.406C0.373,-0.421 0.369,-0.435 0.361,-0.448C0.353,-0.461 0.341,-0.471 0.325,-0.479C0.309,-0.487 0.29,-0.491 0.267,-0.491C0.249,-0.491 0.233,-0.489 0.218,-0.484C0.203,-0.479 0.189,-0.473 0.177,-0.466C0.164,-0.458 0.153,-0.45 0.143,-0.441C0.133,-0.432 0.124,-0.423 0.117,-0.414L0.048,-0.493C0.055,-0.501 0.065,-0.51 0.08,-0.521C0.094,-0.531 0.111,-0.541 0.132,-0.552C0.152,-0.562 0.175,-0.571 0.201,-0.578C0.227,-0.585 0.255,-0.588 0.286,-0.588C0.329,-0.588 0.366,-0.581 0.397,-0.566C0.428,-0.552 0.451,-0.532 0.468,-0.507C0.484,-0.481 0.492,-0.453 0.492,-0.421C0.492,-0.396 0.487,-0.374 0.477,-0.355C0.468,-0.336 0.455,-0.319 0.44,-0.305C0.425,-0.29 0.408,-0.278 0.392,-0.267C0.375,-0.257 0.359,-0.247 0.344,-0.239C0.318,-0.226 0.296,-0.214 0.277,-0.204C0.258,-0.193 0.241,-0.182 0.228,-0.172C0.215,-0.161 0.204,-0.15 0.195,-0.139C0.186,-0.128 0.179,-0.115 0.173,-0.099L0.503,-0.099L0.503,-0L0.04,-0Z" style="fill:white;fill-rule:nonzero;"/>
        </g>
        <g transform="matrix(288,0,0,288,1406.16,1310.72)">
            <path d="M0.563,-0.289C0.563,-0.231 0.552,-0.179 0.53,-0.134C0.507,-0.089 0.477,-0.054 0.439,-0.028C0.4,-0.003 0.356,0.01 0.307,0.01C0.258,0.01 0.215,-0.003 0.176,-0.028C0.137,-0.054 0.107,-0.089 0.085,-0.134C0.062,-0.179 0.051,-0.231 0.051,-0.289C0.051,-0.346 0.062,-0.398 0.085,-0.443C0.107,-0.488 0.137,-0.523 0.176,-0.549C0.215,-0.575 0.258,-0.588 0.307,-0.588C0.356,-0.588 0.4,-0.575 0.439,-0.549C0.477,-0.523 0.507,-0.488 0.53,-0.443C0.552,-0.398 0.563,-0.346 0.563,-0.289ZM0.451,-0.289C0.451,-0.328 0.445,-0.362 0.433,-0.392C0.421,-0.421 0.404,-0.444 0.382,-0.461C0.36,-0.478 0.335,-0.486 0.307,-0.486C0.278,-0.486 0.253,-0.478 0.231,-0.461C0.209,-0.444 0.192,-0.421 0.18,-0.392C0.167,-0.362 0.161,-0.328 0.161,-0.289C0.161,-0.249 0.167,-0.215 0.18,-0.186C0.192,-0.157 0.209,-0.134 0.231,-0.117C0.253,-0.1 0.278,-0.092 0.307,-0.092C0.335,-0.092 0.36,-0.1 0.382,-0.117C0.403,-0.134 0.42,-0.157 0.433,-0.186C0.445,-0.215 0.451,-0.249 0.451,-0.289Z" style="fill:white;fill-rule:nonzero;"/>
        </g>
        <g transform="matrix(288,0,0,288,1582.99,1310.72)">
            <path d="M0.04,-0C0.04,-0.028 0.042,-0.054 0.047,-0.078C0.052,-0.102 0.06,-0.125 0.071,-0.147C0.083,-0.168 0.1,-0.189 0.121,-0.208C0.141,-0.227 0.168,-0.246 0.201,-0.263C0.224,-0.277 0.246,-0.289 0.267,-0.299C0.288,-0.31 0.306,-0.32 0.322,-0.33C0.338,-0.341 0.35,-0.352 0.36,-0.364C0.369,-0.376 0.373,-0.39 0.373,-0.406C0.373,-0.421 0.369,-0.435 0.361,-0.448C0.353,-0.461 0.341,-0.471 0.325,-0.479C0.309,-0.487 0.29,-0.491 0.267,-0.491C0.249,-0.491 0.233,-0.489 0.218,-0.484C0.203,-0.479 0.189,-0.473 0.177,-0.466C0.164,-0.458 0.153,-0.45 0.143,-0.441C0.133,-0.432 0.124,-0.423 0.117,-0.414L0.048,-0.493C0.055,-0.501 0.065,-0.51 0.08,-0.521C0.094,-0.531 0.111,-0.541 0.132,-0.552C0.152,-0.562 0.175,-0.571 0.201,-0.578C0.227,-0.585 0.255,-0.588 0.286,-0.588C0.329,-0.588 0.366,-0.581 0.397,-0.566C0.428,-0.552 0.451,-0.532 0.468,-0.507C0.484,-0.481 0.492,-0.453 0.492,-0.421C0.492,-0.396 0.487,-0.374 0.477,-0.355C0.468,-0.336 0.455,-0.319 0.44,-0.305C0.425,-0.29 0.408,-0.278 0.392,-0.267C0.375,-0.257 0.359,-0.247 0.344,-0.239C0.318,-0.226 0.296,-0.214 0.277,-0.204C0.258,-0.193 0.241,-0.182 0.228,-0.172C0.215,-0.161 0.204,-0.15 0.195,-0.139C0.186,-0.128 0.179,-0.115 0.173,-0.099L0.503,-0.099L0.503,-0L0.04,-0Z" style="fill:white;fill-rule:nonzero;"/>
        </g>
        <g transform="matrix(288,0,0,288,1741.1,1310.72)">
            <path d="M0.262,0.149C0.211,0.149 0.165,0.137 0.124,0.114C0.083,0.091 0.052,0.06 0.031,0.021L0.097,-0.042C0.116,-0.013 0.14,0.009 0.169,0.026C0.198,0.043 0.23,0.052 0.263,0.052C0.29,0.052 0.315,0.046 0.336,0.034C0.357,0.023 0.374,0.006 0.387,-0.015C0.399,-0.035 0.405,-0.06 0.405,-0.087C0.405,-0.114 0.399,-0.137 0.387,-0.158C0.375,-0.178 0.359,-0.194 0.339,-0.204C0.319,-0.216 0.296,-0.221 0.27,-0.221C0.245,-0.221 0.221,-0.215 0.199,-0.204C0.177,-0.193 0.159,-0.177 0.145,-0.156L0.048,-0.156L0.129,-0.571L0.476,-0.571L0.476,-0.47L0.209,-0.47L0.173,-0.276C0.184,-0.288 0.2,-0.298 0.219,-0.306C0.238,-0.313 0.26,-0.317 0.285,-0.317C0.33,-0.317 0.37,-0.307 0.405,-0.288C0.44,-0.268 0.467,-0.241 0.488,-0.207C0.508,-0.173 0.518,-0.134 0.518,-0.089C0.518,-0.042 0.507,-0 0.484,0.035C0.461,0.071 0.431,0.099 0.392,0.119C0.353,0.139 0.31,0.149 0.262,0.149Z" style="fill:white;fill-rule:nonzero;"/>
        </g>
        <g transform="matrix(288,0,0,288,1970.93,1310.72)">
            <path d="M0.192,-0.502L0.192,-0L0.08,-0L0.08,-0.71L0.172,-0.71L0.574,-0.197L0.574,-0.709L0.687,-0.709L0.687,-0L0.589,-0L0.192,-0.502Z" style="fill:white;fill-rule:nonzero;"/>
        </g>
        <g transform="matrix(288,0,0,288,2191.82,1310.72)">
            <path d="M0.285,-0.71L0.391,-0.71L0.667,-0L0.549,-0L0.48,-0.193L0.196,-0.193L0.126,-0L0.007,-0L0.285,-0.71ZM0.45,-0.276L0.338,-0.587L0.226,-0.276L0.45,-0.276Z" style="fill:white;fill-rule:nonzero;"/>
        </g>
        <g transform="matrix(288,0,0,288,2383.34,1310.72)">
            <path d="M0.5,-0.543C0.493,-0.55 0.484,-0.558 0.471,-0.567C0.458,-0.575 0.443,-0.583 0.426,-0.59C0.409,-0.597 0.39,-0.603 0.37,-0.608C0.35,-0.613 0.329,-0.615 0.308,-0.615C0.261,-0.615 0.227,-0.606 0.204,-0.589C0.181,-0.572 0.17,-0.548 0.17,-0.517C0.17,-0.495 0.176,-0.477 0.189,-0.464C0.202,-0.451 0.221,-0.44 0.247,-0.432C0.273,-0.423 0.306,-0.414 0.345,-0.404C0.393,-0.392 0.435,-0.379 0.47,-0.363C0.505,-0.348 0.532,-0.327 0.551,-0.301C0.57,-0.275 0.579,-0.241 0.579,-0.198C0.579,-0.162 0.572,-0.132 0.559,-0.106C0.546,-0.08 0.527,-0.059 0.503,-0.042C0.479,-0.026 0.451,-0.014 0.42,-0.006C0.389,0.001 0.355,0.005 0.319,0.005C0.284,0.005 0.249,0.001 0.214,-0.006C0.179,-0.013 0.145,-0.024 0.114,-0.039C0.082,-0.053 0.053,-0.07 0.026,-0.091L0.077,-0.187C0.086,-0.178 0.098,-0.169 0.115,-0.159C0.131,-0.148 0.15,-0.138 0.172,-0.129C0.193,-0.12 0.217,-0.112 0.243,-0.106C0.268,-0.099 0.294,-0.096 0.321,-0.096C0.366,-0.096 0.4,-0.104 0.424,-0.119C0.447,-0.135 0.459,-0.157 0.459,-0.186C0.459,-0.21 0.451,-0.23 0.436,-0.244C0.421,-0.258 0.398,-0.27 0.369,-0.28C0.34,-0.29 0.305,-0.3 0.264,-0.31C0.217,-0.323 0.178,-0.337 0.147,-0.352C0.116,-0.366 0.092,-0.386 0.077,-0.409C0.061,-0.433 0.053,-0.463 0.053,-0.5C0.053,-0.546 0.064,-0.586 0.087,-0.618C0.11,-0.65 0.141,-0.674 0.18,-0.691C0.219,-0.707 0.262,-0.715 0.311,-0.715C0.343,-0.715 0.373,-0.712 0.402,-0.705C0.431,-0.698 0.458,-0.688 0.483,-0.676C0.507,-0.664 0.53,-0.65 0.551,-0.635L0.5,-0.543Z" style="fill:white;fill-rule:nonzero;"/>
        </g>
        <g transform="matrix(288,0,0,288,1004.97,1598.72)">
            <path d="M0.376,0.005C0.319,0.005 0.272,-0.005 0.233,-0.024C0.194,-0.043 0.162,-0.07 0.139,-0.103C0.115,-0.136 0.098,-0.174 0.086,-0.217C0.076,-0.26 0.07,-0.304 0.07,-0.35L0.07,-0.71L0.182,-0.71L0.182,-0.35C0.182,-0.317 0.185,-0.286 0.192,-0.256C0.199,-0.225 0.209,-0.198 0.224,-0.174C0.239,-0.15 0.259,-0.131 0.283,-0.117C0.309,-0.103 0.339,-0.096 0.376,-0.096C0.413,-0.096 0.445,-0.103 0.469,-0.117C0.495,-0.132 0.514,-0.151 0.529,-0.175C0.543,-0.2 0.553,-0.227 0.56,-0.257C0.567,-0.287 0.57,-0.318 0.57,-0.35L0.57,-0.71L0.683,-0.71L0.683,-0.35C0.683,-0.301 0.677,-0.256 0.666,-0.213C0.654,-0.17 0.636,-0.132 0.612,-0.1C0.587,-0.067 0.556,-0.042 0.517,-0.023C0.478,-0.004 0.431,0.005 0.376,0.005Z" style="fill:white;fill-rule:nonzero;"/>
        </g>
        <g transform="matrix(288,0,0,288,1219.25,1598.72)">
            <path d="M0.535,-0L0.425,-0L0.425,-0.29C0.425,-0.338 0.417,-0.373 0.402,-0.395C0.386,-0.418 0.363,-0.429 0.332,-0.429C0.311,-0.429 0.29,-0.424 0.269,-0.413C0.248,-0.403 0.229,-0.389 0.212,-0.371C0.195,-0.352 0.183,-0.332 0.176,-0.308L0.176,-0L0.066,-0L0.066,-0.519L0.166,-0.519L0.166,-0.414C0.179,-0.437 0.197,-0.457 0.219,-0.474C0.24,-0.491 0.265,-0.504 0.292,-0.513C0.319,-0.522 0.348,-0.527 0.379,-0.527C0.41,-0.527 0.436,-0.521 0.457,-0.51C0.477,-0.499 0.493,-0.484 0.504,-0.464C0.516,-0.445 0.524,-0.422 0.529,-0.397C0.533,-0.371 0.535,-0.344 0.535,-0.316L0.535,-0Z" style="fill:white;fill-rule:nonzero;"/>
        </g>
        <g transform="matrix(288,0,0,288,1391.18,1598.72)">
            <path d="M0.252,0.01C0.208,0.01 0.166,0.003 0.127,-0.012C0.088,-0.026 0.054,-0.047 0.026,-0.076L0.067,-0.15C0.097,-0.123 0.127,-0.104 0.158,-0.092C0.188,-0.08 0.218,-0.074 0.248,-0.074C0.279,-0.074 0.304,-0.08 0.323,-0.091C0.342,-0.103 0.352,-0.119 0.352,-0.142C0.352,-0.158 0.347,-0.17 0.337,-0.178C0.327,-0.186 0.313,-0.193 0.294,-0.199C0.275,-0.205 0.252,-0.212 0.225,-0.219C0.188,-0.23 0.156,-0.242 0.131,-0.254C0.106,-0.266 0.087,-0.281 0.074,-0.299C0.061,-0.317 0.055,-0.34 0.055,-0.367C0.055,-0.401 0.064,-0.43 0.081,-0.454C0.098,-0.477 0.123,-0.496 0.154,-0.508C0.185,-0.521 0.22,-0.527 0.261,-0.527C0.299,-0.527 0.334,-0.521 0.367,-0.509C0.399,-0.498 0.427,-0.48 0.452,-0.455L0.405,-0.382C0.382,-0.403 0.358,-0.419 0.334,-0.429C0.309,-0.439 0.283,-0.444 0.255,-0.444C0.239,-0.444 0.224,-0.442 0.209,-0.439C0.194,-0.435 0.182,-0.428 0.172,-0.419C0.163,-0.409 0.158,-0.396 0.158,-0.379C0.158,-0.365 0.162,-0.354 0.17,-0.345C0.178,-0.337 0.19,-0.329 0.206,-0.323C0.222,-0.317 0.242,-0.311 0.265,-0.304C0.306,-0.292 0.34,-0.28 0.369,-0.268C0.398,-0.257 0.42,-0.242 0.436,-0.224C0.451,-0.206 0.459,-0.181 0.459,-0.149C0.459,-0.099 0.44,-0.06 0.403,-0.032C0.365,-0.004 0.315,0.01 0.252,0.01Z" style="fill:white;fill-rule:nonzero;"/>
        </g>
        <g transform="matrix(288,0,0,288,1532.59,1598.72)">
            <path d="M0.303,0.01C0.262,0.01 0.226,0.003 0.193,-0.011C0.16,-0.026 0.131,-0.045 0.107,-0.07C0.083,-0.095 0.065,-0.123 0.051,-0.155C0.039,-0.187 0.032,-0.222 0.032,-0.258C0.032,-0.307 0.043,-0.351 0.066,-0.392C0.089,-0.433 0.12,-0.465 0.161,-0.49C0.202,-0.515 0.249,-0.527 0.304,-0.527C0.359,-0.527 0.406,-0.515 0.446,-0.49C0.485,-0.465 0.516,-0.433 0.538,-0.392C0.56,-0.352 0.571,-0.309 0.571,-0.263C0.571,-0.255 0.571,-0.247 0.57,-0.24C0.569,-0.233 0.569,-0.228 0.568,-0.223L0.149,-0.223C0.151,-0.193 0.16,-0.166 0.174,-0.144C0.19,-0.121 0.209,-0.103 0.232,-0.09C0.255,-0.077 0.28,-0.071 0.307,-0.071C0.336,-0.071 0.364,-0.078 0.391,-0.093C0.417,-0.108 0.435,-0.127 0.444,-0.151L0.538,-0.124C0.527,-0.099 0.509,-0.076 0.487,-0.056C0.464,-0.035 0.436,-0.019 0.405,-0.008C0.374,0.004 0.34,0.01 0.303,0.01ZM0.146,-0.296L0.462,-0.296C0.46,-0.325 0.452,-0.351 0.437,-0.374C0.422,-0.396 0.403,-0.414 0.38,-0.427C0.357,-0.44 0.331,-0.446 0.303,-0.446C0.276,-0.446 0.251,-0.44 0.228,-0.427C0.204,-0.414 0.186,-0.396 0.171,-0.374C0.156,-0.351 0.148,-0.325 0.146,-0.296Z" style="fill:white;fill-rule:nonzero;"/>
        </g>
        <g transform="matrix(288,0,0,288,1703.95,1598.72)">
            <path d="M0.303,0.01C0.262,0.01 0.226,0.003 0.193,-0.011C0.16,-0.026 0.131,-0.045 0.107,-0.07C0.083,-0.095 0.065,-0.123 0.051,-0.155C0.039,-0.187 0.032,-0.222 0.032,-0.258C0.032,-0.307 0.043,-0.351 0.066,-0.392C0.089,-0.433 0.12,-0.465 0.161,-0.49C0.202,-0.515 0.249,-0.527 0.304,-0.527C0.359,-0.527 0.406,-0.515 0.446,-0.49C0.485,-0.465 0.516,-0.433 0.538,-0.392C0.56,-0.352 0.571,-0.309 0.571,-0.263C0.571,-0.255 0.571,-0.247 0.57,-0.24C0.569,-0.233 0.569,-0.228 0.568,-0.223L0.149,-0.223C0.151,-0.193 0.16,-0.166 0.174,-0.144C0.19,-0.121 0.209,-0.103 0.232,-0.09C0.255,-0.077 0.28,-0.071 0.307,-0.071C0.336,-0.071 0.364,-0.078 0.391,-0.093C0.417,-0.108 0.435,-0.127 0.444,-0.151L0.538,-0.124C0.527,-0.099 0.509,-0.076 0.487,-0.056C0.464,-0.035 0.436,-0.019 0.405,-0.008C0.374,0.004 0.34,0.01 0.303,0.01ZM0.146,-0.296L0.462,-0.296C0.46,-0.325 0.452,-0.351 0.437,-0.374C0.422,-0.396 0.403,-0.414 0.38,-0.427C0.357,-0.44 0.331,-0.446 0.303,-0.446C0.276,-0.446 0.251,-0.44 0.228,-0.427C0.204,-0.414 0.186,-0.396 0.171,-0.374C0.156,-0.351 0.148,-0.325 0.146,-0.296Z" style="fill:white;fill-rule:nonzero;"/>
        </g>
        <g transform="matrix(288,0,0,288,1875.31,1598.72)">
            <path d="M0.535,-0L0.425,-0L0.425,-0.29C0.425,-0.338 0.417,-0.373 0.402,-0.395C0.386,-0.418 0.363,-0.429 0.332,-0.429C0.311,-0.429 0.29,-0.424 0.269,-0.413C0.248,-0.403 0.229,-0.389 0.212,-0.371C0.195,-0.352 0.183,-0.332 0.176,-0.308L0.176,-0L0.066,-0L0.066,-0.519L0.166,-0.519L0.166,-0.414C0.179,-0.437 0.197,-0.457 0.219,-0.474C0.24,-0.491 0.265,-0.504 0.292,-0.513C0.319,-0.522 0.348,-0.527 0.379,-0.527C0.41,-0.527 0.436,-0.521 0.457,-0.51C0.477,-0.499 0.493,-0.484 0.504,-0.464C0.516,-0.445 0.524,-0.422 0.529,-0.397C0.533,-0.371 0.535,-0.344 0.535,-0.316L0.535,-0Z" style="fill:white;fill-rule:nonzero;"/>
        </g>
        <g transform="matrix(288,0,0,288,2047.25,1598.72)">
            <rect x="0.061" y="-0.323" width="0.299" height="0.099" style="fill:white;"/>
        </g>
        <g transform="matrix(288,0,0,288,2168.49,1598.72)">
            <path d="M0.08,-0L0.08,-0.71L0.332,-0.71C0.409,-0.71 0.473,-0.694 0.524,-0.663C0.575,-0.631 0.614,-0.588 0.64,-0.535C0.665,-0.481 0.678,-0.421 0.678,-0.356C0.678,-0.284 0.664,-0.221 0.635,-0.168C0.607,-0.115 0.567,-0.073 0.515,-0.044C0.463,-0.015 0.402,-0 0.332,-0L0.08,-0ZM0.564,-0.356C0.564,-0.406 0.555,-0.45 0.537,-0.489C0.518,-0.527 0.492,-0.557 0.458,-0.579C0.423,-0.6 0.381,-0.611 0.332,-0.611L0.192,-0.611L0.192,-0.099L0.332,-0.099C0.382,-0.099 0.424,-0.11 0.459,-0.133C0.493,-0.156 0.519,-0.186 0.537,-0.225C0.555,-0.264 0.564,-0.307 0.564,-0.356Z" style="fill:white;fill-rule:nonzero;"/>
        </g>
        <g transform="matrix(288,0,0,288,2372.97,1598.72)">
            <path d="M0.028,-0.152C0.028,-0.185 0.038,-0.213 0.057,-0.238C0.076,-0.263 0.102,-0.282 0.135,-0.296C0.168,-0.309 0.207,-0.316 0.251,-0.316C0.274,-0.316 0.298,-0.314 0.323,-0.311C0.347,-0.308 0.368,-0.302 0.387,-0.295L0.387,-0.328C0.387,-0.364 0.376,-0.392 0.354,-0.412C0.332,-0.433 0.3,-0.443 0.259,-0.443C0.23,-0.443 0.202,-0.438 0.176,-0.428C0.15,-0.417 0.122,-0.403 0.093,-0.384L0.056,-0.458C0.091,-0.481 0.126,-0.499 0.161,-0.51C0.196,-0.521 0.232,-0.527 0.271,-0.527C0.341,-0.527 0.396,-0.509 0.437,-0.472C0.477,-0.436 0.497,-0.384 0.497,-0.316L0.497,-0.124C0.497,-0.111 0.499,-0.102 0.503,-0.097C0.508,-0.092 0.515,-0.089 0.526,-0.088L0.526,-0C0.516,0.002 0.507,0.003 0.499,0.004C0.491,0.005 0.484,0.005 0.479,0.005C0.456,0.005 0.438,-0.001 0.426,-0.012C0.414,-0.023 0.407,-0.037 0.405,-0.052L0.402,-0.082C0.379,-0.053 0.35,-0.03 0.315,-0.014C0.28,0.002 0.244,0.01 0.208,0.01C0.173,0.01 0.142,0.003 0.115,-0.011C0.088,-0.026 0.066,-0.045 0.051,-0.069C0.036,-0.094 0.028,-0.121 0.028,-0.152ZM0.361,-0.12C0.369,-0.129 0.375,-0.137 0.38,-0.146C0.385,-0.154 0.387,-0.162 0.387,-0.168L0.387,-0.227C0.368,-0.235 0.349,-0.24 0.328,-0.244C0.307,-0.247 0.287,-0.249 0.267,-0.249C0.227,-0.249 0.195,-0.241 0.17,-0.225C0.145,-0.21 0.132,-0.188 0.132,-0.16C0.132,-0.145 0.136,-0.131 0.145,-0.117C0.153,-0.103 0.165,-0.092 0.181,-0.084C0.196,-0.075 0.216,-0.071 0.239,-0.071C0.263,-0.071 0.286,-0.076 0.308,-0.085C0.33,-0.094 0.348,-0.106 0.361,-0.12Z" style="fill:white;fill-rule:nonzero;"/>
        </g>
        <g transform="matrix(288,0,0,288,2534.25,1598.72)">
            <path d="M0.357,-0.025C0.348,-0.02 0.336,-0.015 0.322,-0.01C0.308,-0.005 0.292,-0 0.275,0.004C0.257,0.008 0.239,0.01 0.22,0.01C0.197,0.01 0.176,0.006 0.157,-0.002C0.138,-0.01 0.122,-0.023 0.111,-0.04C0.099,-0.058 0.093,-0.081 0.093,-0.108L0.093,-0.434L0.024,-0.434L0.024,-0.519L0.093,-0.519L0.093,-0.691L0.203,-0.691L0.203,-0.519L0.317,-0.519L0.317,-0.434L0.203,-0.434L0.203,-0.144C0.204,-0.126 0.21,-0.113 0.221,-0.104C0.231,-0.095 0.244,-0.091 0.259,-0.091C0.274,-0.091 0.289,-0.094 0.303,-0.099C0.317,-0.104 0.327,-0.109 0.334,-0.112L0.357,-0.025Z" style="fill:white;fill-rule:nonzero;"/>
        </g>
        <g transform="matrix(288,0,0,288,2639.95,1598.72)">
            <path d="M0.028,-0.152C0.028,-0.185 0.038,-0.213 0.057,-0.238C0.076,-0.263 0.102,-0.282 0.135,-0.296C0.168,-0.309 0.207,-0.316 0.251,-0.316C0.274,-0.316 0.298,-0.314 0.323,-0.311C0.347,-0.308 0.368,-0.302 0.387,-0.295L0.387,-0.328C0.387,-0.364 0.376,-0.392 0.354,-0.412C0.332,-0.433 0.3,-0.443 0.259,-0.443C0.23,-0.443 0.202,-0.438 0.176,-0.428C0.15,-0.417 0.122,-0.403 0.093,-0.384L0.056,-0.458C0.091,-0.481 0.126,-0.499 0.161,-0.51C0.196,-0.521 0.232,-0.527 0.271,-0.527C0.341,-0.527 0.396,-0.509 0.437,-0.472C0.477,-0.436 0.497,-0.384 0.497,-0.316L0.497,-0.124C0.497,-0.111 0.499,-0.102 0.503,-0.097C0.508,-0.092 0.515,-0.089 0.526,-0.088L0.526,-0C0.516,0.002 0.507,0.003 0.499,0.004C0.491,0.005 0.484,0.005 0.479,0.005C0.456,0.005 0.438,-0.001 0.426,-0.012C0.414,-0.023 0.407,-0.037 0.405,-0.052L0.402,-0.082C0.379,-0.053 0.35,-0.03 0.315,-0.014C0.28,0.002 0.244,0.01 0.208,0.01C0.173,0.01 0.142,0.003 0.115,-0.011C0.088,-0.026 0.066,-0.045 0.051,-0.069C0.036,-0.094 0.028,-0.121 0.028,-0.152ZM0.361,-0.12C0.369,-0.129 0.375,-0.137 0.38,-0.146C0.385,-0.154 0.387,-0.162 0.387,-0.168L0.387,-0.227C0.368,-0.235 0.349,-0.24 0.328,-0.244C0.307,-0.247 0.287,-0.249 0.267,-0.249C0.227,-0.249 0.195,-0.241 0.17,-0.225C0.145,-0.21 0.132,-0.188 0.132,-0.16C0.132,-0.145 0.136,-0.131 0.145,-0.117C0.153,-0.103 0.165,-0.092 0.181,-0.084C0.196,-0.075 0.216,-0.071 0.239,-0.071C0.263,-0.071 0.286,-0.076 0.308,-0.085C0.33,-0.094 0.348,-0.106 0.361,-0.12Z" style="fill:white;fill-rule:nonzero;"/>
        </g>
        <g transform="matrix(288,0,0,288,1203.41,1886.72)">
            <path d="M0.035,-0.361C0.035,-0.404 0.043,-0.447 0.058,-0.489C0.073,-0.53 0.096,-0.568 0.126,-0.603C0.155,-0.637 0.191,-0.664 0.234,-0.685C0.277,-0.705 0.325,-0.715 0.379,-0.715C0.443,-0.715 0.498,-0.701 0.545,-0.672C0.592,-0.643 0.626,-0.605 0.649,-0.56L0.561,-0.501C0.548,-0.53 0.531,-0.552 0.51,-0.569C0.49,-0.586 0.468,-0.597 0.445,-0.604C0.421,-0.611 0.398,-0.614 0.375,-0.614C0.338,-0.614 0.305,-0.607 0.277,-0.592C0.249,-0.577 0.226,-0.557 0.206,-0.532C0.188,-0.507 0.173,-0.48 0.164,-0.449C0.154,-0.418 0.149,-0.388 0.149,-0.357C0.149,-0.323 0.155,-0.29 0.166,-0.259C0.177,-0.227 0.193,-0.199 0.214,-0.174C0.234,-0.15 0.258,-0.131 0.286,-0.117C0.314,-0.103 0.345,-0.096 0.378,-0.096C0.401,-0.096 0.424,-0.1 0.449,-0.108C0.474,-0.116 0.497,-0.129 0.518,-0.146C0.539,-0.163 0.555,-0.185 0.567,-0.213L0.66,-0.16C0.645,-0.125 0.623,-0.095 0.592,-0.07C0.561,-0.045 0.526,-0.027 0.488,-0.014C0.449,-0.001 0.411,0.005 0.374,0.005C0.324,0.005 0.278,-0.006 0.237,-0.027C0.196,-0.048 0.16,-0.076 0.13,-0.111C0.1,-0.146 0.077,-0.185 0.06,-0.229C0.043,-0.272 0.035,-0.316 0.035,-0.361Z" style="fill:white;fill-rule:nonzero;"/>
        </g>
        <g transform="matrix(288,0,0,288,1400.4,1886.72)">
            <path d="M0.535,-0L0.425,-0L0.425,-0.29C0.425,-0.336 0.416,-0.371 0.399,-0.394C0.382,-0.417 0.357,-0.429 0.326,-0.429C0.307,-0.429 0.287,-0.424 0.266,-0.413C0.245,-0.403 0.227,-0.389 0.211,-0.371C0.195,-0.352 0.183,-0.332 0.176,-0.308L0.176,-0L0.066,-0L0.066,-0.73L0.176,-0.73L0.176,-0.414C0.196,-0.449 0.223,-0.477 0.258,-0.497C0.293,-0.517 0.33,-0.527 0.37,-0.527C0.403,-0.527 0.43,-0.521 0.451,-0.51C0.472,-0.499 0.489,-0.484 0.501,-0.464C0.514,-0.445 0.523,-0.422 0.528,-0.397C0.533,-0.371 0.535,-0.344 0.535,-0.316L0.535,-0Z" style="fill:white;fill-rule:nonzero;"/>
        </g>
        <g transform="matrix(288,0,0,288,1572.33,1886.72)">
            <path d="M0.028,-0.152C0.028,-0.185 0.038,-0.213 0.057,-0.238C0.076,-0.263 0.102,-0.282 0.135,-0.296C0.168,-0.309 0.207,-0.316 0.251,-0.316C0.274,-0.316 0.298,-0.314 0.323,-0.311C0.347,-0.308 0.368,-0.302 0.387,-0.295L0.387,-0.328C0.387,-0.364 0.376,-0.392 0.354,-0.412C0.332,-0.433 0.3,-0.443 0.259,-0.443C0.23,-0.443 0.202,-0.438 0.176,-0.428C0.15,-0.417 0.122,-0.403 0.093,-0.384L0.056,-0.458C0.091,-0.481 0.126,-0.499 0.161,-0.51C0.196,-0.521 0.232,-0.527 0.271,-0.527C0.341,-0.527 0.396,-0.509 0.437,-0.472C0.477,-0.436 0.497,-0.384 0.497,-0.316L0.497,-0.124C0.497,-0.111 0.499,-0.102 0.503,-0.097C0.508,-0.092 0.515,-0.089 0.526,-0.088L0.526,-0C0.516,0.002 0.507,0.003 0.499,0.004C0.491,0.005 0.484,0.005 0.479,0.005C0.456,0.005 0.438,-0.001 0.426,-0.012C0.414,-0.023 0.407,-0.037 0.405,-0.052L0.402,-0.082C0.379,-0.053 0.35,-0.03 0.315,-0.014C0.28,0.002 0.244,0.01 0.208,0.01C0.173,0.01 0.142,0.003 0.115,-0.011C0.088,-0.026 0.066,-0.045 0.051,-0.069C0.036,-0.094 0.028,-0.121 0.028,-0.152ZM0.361,-0.12C0.369,-0.129 0.375,-0.137 0.38,-0.146C0.385,-0.154 0.387,-0.162 0.387,-0.168L0.387,-0.227C0.368,-0.235 0.349,-0.24 0.328,-0.244C0.307,-0.247 0.287,-0.249 0.267,-0.249C0.227,-0.249 0.195,-0.241 0.17,-0.225C0.145,-0.21 0.132,-0.188 0.132,-0.16C0.132,-0.145 0.136,-0.131 0.145,-0.117C0.153,-0.103 0.165,-0.092 0.181,-0.084C0.196,-0.075 0.216,-0.071 0.239,-0.071C0.263,-0.071 0.286,-0.076 0.308,-0.085C0.33,-0.094 0.348,-0.106 0.361,-0.12Z" style="fill:white;fill-rule:nonzero;"/>
        </g>
        <g transform="matrix(288,0,0,288,1734.77,1886.72)">
            <path d="M0.067,-0.73L0.177,-0.73L0.177,-0.149C0.177,-0.122 0.181,-0.105 0.189,-0.098C0.197,-0.091 0.207,-0.087 0.219,-0.087C0.232,-0.087 0.245,-0.088 0.257,-0.091C0.268,-0.094 0.278,-0.097 0.287,-0.101L0.303,-0.014C0.287,-0.007 0.268,-0.002 0.246,0.003C0.224,0.008 0.204,0.01 0.187,0.01C0.15,0.01 0.12,-0.001 0.099,-0.022C0.078,-0.043 0.067,-0.072 0.067,-0.109L0.067,-0.73Z" style="fill:white;fill-rule:nonzero;"/>
        </g>
        <g transform="matrix(288,0,0,288,1821.45,1886.72)">
            <path d="M0.067,-0.73L0.177,-0.73L0.177,-0.149C0.177,-0.122 0.181,-0.105 0.189,-0.098C0.197,-0.091 0.207,-0.087 0.219,-0.087C0.232,-0.087 0.245,-0.088 0.257,-0.091C0.268,-0.094 0.278,-0.097 0.287,-0.101L0.303,-0.014C0.287,-0.007 0.268,-0.002 0.246,0.003C0.224,0.008 0.204,0.01 0.187,0.01C0.15,0.01 0.12,-0.001 0.099,-0.022C0.078,-0.043 0.067,-0.072 0.067,-0.109L0.067,-0.73Z" style="fill:white;fill-rule:nonzero;"/>
        </g>
        <g transform="matrix(288,0,0,288,1908.14,1886.72)">
            <path d="M0.303,0.01C0.262,0.01 0.226,0.003 0.193,-0.011C0.16,-0.026 0.131,-0.045 0.107,-0.07C0.083,-0.095 0.065,-0.123 0.051,-0.155C0.039,-0.187 0.032,-0.222 0.032,-0.258C0.032,-0.307 0.043,-0.351 0.066,-0.392C0.089,-0.433 0.12,-0.465 0.161,-0.49C0.202,-0.515 0.249,-0.527 0.304,-0.527C0.359,-0.527 0.406,-0.515 0.446,-0.49C0.485,-0.465 0.516,-0.433 0.538,-0.392C0.56,-0.352 0.571,-0.309 0.571,-0.263C0.571,-0.255 0.571,-0.247 0.57,-0.24C0.569,-0.233 0.569,-0.228 0.568,-0.223L0.149,-0.223C0.151,-0.193 0.16,-0.166 0.174,-0.144C0.19,-0.121 0.209,-0.103 0.232,-0.09C0.255,-0.077 0.28,-0.071 0.307,-0.071C0.336,-0.071 0.364,-0.078 0.391,-0.093C0.417,-0.108 0.435,-0.127 0.444,-0.151L0.538,-0.124C0.527,-0.099 0.509,-0.076 0.487,-0.056C0.464,-0.035 0.436,-0.019 0.405,-0.008C0.374,0.004 0.34,0.01 0.303,0.01ZM0.146,-0.296L0.462,-0.296C0.46,-0.325 0.452,-0.351 0.437,-0.374C0.422,-0.396 0.403,-0.414 0.38,-0.427C0.357,-0.44 0.331,-0.446 0.303,-0.446C0.276,-0.446 0.251,-0.44 0.228,-0.427C0.204,-0.414 0.186,-0.396 0.171,-0.374C0.156,-0.351 0.148,-0.325 0.146,-0.296Z" style="fill:white;fill-rule:nonzero;"/>
        </g>
        <g transform="matrix(288,0,0,288,2079.5,1886.72)">
            <path d="M0.535,-0L0.425,-0L0.425,-0.29C0.425,-0.338 0.417,-0.373 0.402,-0.395C0.386,-0.418 0.363,-0.429 0.332,-0.429C0.311,-0.429 0.29,-0.424 0.269,-0.413C0.248,-0.403 0.229,-0.389 0.212,-0.371C0.195,-0.352 0.183,-0.332 0.176,-0.308L0.176,-0L0.066,-0L0.066,-0.519L0.166,-0.519L0.166,-0.414C0.179,-0.437 0.197,-0.457 0.219,-0.474C0.24,-0.491 0.265,-0.504 0.292,-0.513C0.319,-0.522 0.348,-0.527 0.379,-0.527C0.41,-0.527 0.436,-0.521 0.457,-0.51C0.477,-0.499 0.493,-0.484 0.504,-0.464C0.516,-0.445 0.524,-0.422 0.529,-0.397C0.533,-0.371 0.535,-0.344 0.535,-0.316L0.535,-0Z" style="fill:white;fill-rule:nonzero;"/>
        </g>
        <g transform="matrix(288,0,0,288,2251.44,1886.72)">
            <path d="M0.273,0.01C0.238,0.01 0.205,0.003 0.176,-0.012C0.147,-0.026 0.122,-0.045 0.101,-0.07C0.08,-0.095 0.063,-0.123 0.051,-0.155C0.04,-0.187 0.034,-0.221 0.034,-0.256C0.034,-0.293 0.04,-0.328 0.052,-0.361C0.064,-0.394 0.081,-0.423 0.102,-0.448C0.124,-0.472 0.15,-0.492 0.179,-0.506C0.208,-0.52 0.241,-0.527 0.277,-0.527C0.319,-0.527 0.356,-0.517 0.388,-0.498C0.419,-0.478 0.445,-0.452 0.466,-0.42L0.466,-0.519L0.563,-0.519L0.563,-0.014C0.563,0.037 0.551,0.079 0.527,0.115C0.502,0.15 0.469,0.177 0.427,0.195C0.385,0.214 0.338,0.223 0.285,0.223C0.227,0.223 0.179,0.213 0.141,0.193C0.103,0.173 0.071,0.146 0.044,0.111L0.106,0.053C0.126,0.081 0.152,0.102 0.184,0.117C0.215,0.132 0.249,0.139 0.285,0.139C0.315,0.139 0.343,0.134 0.369,0.123C0.394,0.113 0.415,0.096 0.43,0.074C0.445,0.052 0.453,0.024 0.453,-0.01L0.453,-0.09C0.434,-0.059 0.409,-0.034 0.376,-0.017C0.343,0.001 0.309,0.01 0.273,0.01ZM0.309,-0.079C0.326,-0.079 0.342,-0.082 0.357,-0.087C0.372,-0.093 0.387,-0.101 0.4,-0.111C0.412,-0.12 0.424,-0.131 0.433,-0.143C0.442,-0.156 0.449,-0.169 0.453,-0.183L0.453,-0.32C0.444,-0.343 0.432,-0.363 0.416,-0.38C0.4,-0.397 0.382,-0.41 0.362,-0.419C0.342,-0.428 0.322,-0.433 0.301,-0.433C0.277,-0.433 0.256,-0.428 0.236,-0.418C0.218,-0.407 0.201,-0.394 0.188,-0.377C0.175,-0.36 0.164,-0.34 0.157,-0.319C0.15,-0.298 0.146,-0.276 0.146,-0.253C0.146,-0.229 0.15,-0.207 0.159,-0.186C0.167,-0.165 0.178,-0.147 0.193,-0.131C0.208,-0.114 0.225,-0.102 0.245,-0.093C0.265,-0.084 0.286,-0.079 0.309,-0.079Z" style="fill:white;fill-rule:nonzero;"/>
        </g>
        <g transform="matrix(288,0,0,288,2432.59,1886.72)">
            <path d="M0.303,0.01C0.262,0.01 0.226,0.003 0.193,-0.011C0.16,-0.026 0.131,-0.045 0.107,-0.07C0.083,-0.095 0.065,-0.123 0.051,-0.155C0.039,-0.187 0.032,-0.222 0.032,-0.258C0.032,-0.307 0.043,-0.351 0.066,-0.392C0.089,-0.433 0.12,-0.465 0.161,-0.49C0.202,-0.515 0.249,-0.527 0.304,-0.527C0.359,-0.527 0.406,-0.515 0.446,-0.49C0.485,-0.465 0.516,-0.433 0.538,-0.392C0.56,-0.352 0.571,-0.309 0.571,-0.263C0.571,-0.255 0.571,-0.247 0.57,-0.24C0.569,-0.233 0.569,-0.228 0.568,-0.223L0.149,-0.223C0.151,-0.193 0.16,-0.166 0.174,-0.144C0.19,-0.121 0.209,-0.103 0.232,-0.09C0.255,-0.077 0.28,-0.071 0.307,-0.071C0.336,-0.071 0.364,-0.078 0.391,-0.093C0.417,-0.108 0.435,-0.127 0.444,-0.151L0.538,-0.124C0.527,-0.099 0.509,-0.076 0.487,-0.056C0.464,-0.035 0.436,-0.019 0.405,-0.008C0.374,0.004 0.34,0.01 0.303,0.01ZM0.146,-0.296L0.462,-0.296C0.46,-0.325 0.452,-0.351 0.437,-0.374C0.422,-0.396 0.403,-0.414 0.38,-0.427C0.357,-0.44 0.331,-0.446 0.303,-0.446C0.276,-0.446 0.251,-0.44 0.228,-0.427C0.204,-0.414 0.186,-0.396 0.171,-0.374C0.156,-0.351 0.148,-0.325 0.146,-0.296Z" style="fill:white;fill-rule:nonzero;"/>
        </g>
    </g>
</svg>
