<?xml version="1.0" encoding="UTF-8" standalone="no"?>
<!DOCTYPE svg PUBLIC "-//W3C//DTD SVG 1.1//EN" "http://www.w3.org/Graphics/SVG/1.1/DTD/svg11.dtd">
<svg width="100%" height="100%" viewBox="0 0 5906 5906" version="1.1" xmlns="http://www.w3.org/2000/svg" xmlns:xlink="http://www.w3.org/1999/xlink" xml:space="preserve" xmlns:serif="http://www.serif.com/" style="fill-rule:evenodd;clip-rule:evenodd;stroke-linejoin:round;stroke-miterlimit:2;">
    <g id="Layer1" transform="matrix(7.86526,0,0,7.85154,-1247.22,-2457.45)">
        <g transform="matrix(37.5367,0,0,28.8789,-442.229,-9966.07)">
            <path d="M36.008,370.467L36.008,381.981L16.006,381.981L36.008,370.467Z" style="fill:rgb(28,68,135);"/>
        </g>
        <g transform="matrix(2.08333,0,0,2.08333,125.239,269.365)">
            <path d="M16,381.97L376.401,222.36L376.401,20.94L16,381.97Z" style="fill:rgb(60,120,216);"/>
        </g>
        <g transform="matrix(2.08333,0,0,2.08333,125.239,269.365)">
            <path d="M16,381.97L376.401,20.94L175.167,20.94L16,381.97Z" style="fill:rgb(147,196,125);"/>
        </g>
        <g transform="matrix(2.08333,0,0,2.08333,125.239,269.365)">
            <path d="M16,381.97L175.167,20.94L16,20.94L16,381.97Z" style="fill:rgb(255,217,102);"/>
        </g>
    </g>
    <g id="Text" transform="matrix(1,0,0,1,24.1204,-38.5432)">
        <g transform="matrix(1.76421,0,0,1.73117,1595.71,857.157)">
            <g transform="matrix(600,0,0,600,-634.064,1074.94)">
                <path d="M0.54,-0.651C0.521,-0.662 0.501,-0.67 0.478,-0.677C0.456,-0.683 0.435,-0.687 0.414,-0.69C0.393,-0.693 0.376,-0.694 0.363,-0.694C0.313,-0.694 0.268,-0.685 0.228,-0.668C0.188,-0.65 0.154,-0.625 0.126,-0.593C0.097,-0.561 0.076,-0.523 0.061,-0.48C0.046,-0.436 0.038,-0.388 0.038,-0.336C0.038,-0.288 0.045,-0.243 0.058,-0.201C0.071,-0.158 0.092,-0.121 0.118,-0.089C0.146,-0.056 0.179,-0.031 0.219,-0.013C0.259,0.005 0.305,0.014 0.358,0.014C0.377,0.014 0.397,0.012 0.42,0.009C0.443,0.006 0.465,0.001 0.487,-0.006C0.509,-0.012 0.528,-0.019 0.544,-0.028L0.501,-0.111C0.482,-0.102 0.46,-0.095 0.436,-0.09C0.411,-0.084 0.383,-0.081 0.352,-0.081C0.321,-0.081 0.293,-0.088 0.269,-0.101C0.244,-0.114 0.224,-0.133 0.206,-0.157C0.19,-0.181 0.177,-0.208 0.168,-0.239C0.159,-0.27 0.155,-0.302 0.155,-0.337C0.155,-0.39 0.164,-0.437 0.182,-0.475C0.2,-0.515 0.225,-0.545 0.256,-0.567C0.286,-0.588 0.321,-0.599 0.36,-0.599C0.381,-0.599 0.399,-0.598 0.414,-0.596C0.429,-0.593 0.443,-0.59 0.458,-0.586C0.472,-0.582 0.488,-0.577 0.505,-0.571L0.54,-0.651Z" style="fill:white;fill-rule:nonzero;"/>
            </g>
            <g transform="matrix(600,0,0,600,-297.464,1074.94)">
                <path d="M0.122,-0.689L0.01,-0.673L0.273,-0L0.371,-0L0.632,-0.68L0.52,-0.68L0.324,-0.153L0.122,-0.689Z" style="fill:white;fill-rule:nonzero;"/>
            </g>
            <g transform="matrix(600,0,0,600,87.7363,1074.94)">
                <path d="M0.199,-0L0.199,-0.244L0.282,-0.244C0.317,-0.244 0.351,-0.248 0.384,-0.257C0.417,-0.266 0.446,-0.279 0.471,-0.297C0.497,-0.315 0.517,-0.338 0.532,-0.366C0.547,-0.394 0.554,-0.427 0.554,-0.465C0.554,-0.516 0.542,-0.558 0.519,-0.59C0.496,-0.621 0.464,-0.644 0.424,-0.659C0.384,-0.673 0.34,-0.68 0.291,-0.68L0.088,-0.68L0.088,-0L0.199,-0ZM0.288,-0.586C0.319,-0.586 0.346,-0.582 0.368,-0.574C0.389,-0.566 0.406,-0.553 0.419,-0.535C0.431,-0.516 0.437,-0.491 0.437,-0.459C0.435,-0.431 0.428,-0.408 0.415,-0.39C0.402,-0.371 0.385,-0.358 0.363,-0.349C0.341,-0.341 0.316,-0.337 0.287,-0.337L0.199,-0.337L0.199,-0.586L0.288,-0.586Z" style="fill:white;fill-rule:nonzero;"/>
            </g>
            <g transform="matrix(600,0,0,600,436.936,1074.94)">
                <path d="M0.288,-0.586C0.319,-0.586 0.345,-0.582 0.367,-0.575C0.389,-0.567 0.406,-0.555 0.419,-0.538C0.431,-0.521 0.437,-0.499 0.437,-0.47C0.437,-0.442 0.43,-0.42 0.417,-0.404C0.403,-0.388 0.385,-0.376 0.363,-0.369C0.34,-0.361 0.315,-0.357 0.287,-0.357L0.199,-0.357L0.199,-0.586L0.288,-0.586ZM0.088,-0.68L0.088,-0L0.199,-0L0.199,-0.265L0.274,-0.265C0.284,-0.265 0.295,-0.265 0.307,-0.266C0.319,-0.266 0.329,-0.266 0.337,-0.267L0.485,-0L0.605,-0L0.437,-0.297C0.471,-0.312 0.499,-0.335 0.521,-0.365C0.543,-0.394 0.554,-0.431 0.554,-0.475C0.554,-0.523 0.542,-0.562 0.519,-0.592C0.496,-0.622 0.464,-0.644 0.424,-0.659C0.384,-0.673 0.34,-0.68 0.291,-0.68L0.088,-0.68Z" style="fill:white;fill-rule:nonzero;"/>
            </g>
            <g transform="matrix(600,0,0,600,805.936,1074.94)">
                <path d="M0.288,-0.318L0.03,-0.318L0.04,-0.229L0.298,-0.229L0.288,-0.318Z" style="fill:white;fill-rule:nonzero;"/>
            </g>
            <g transform="matrix(600,0,0,600,1002.74,1074.94)">
                <path d="M0.199,-0L0.199,-0.482L0.232,-0.432L0.534,-0L0.642,-0L0.642,-0.68L0.528,-0.68L0.528,-0.201L0.483,-0.269L0.194,-0.68L0.088,-0.68L0.088,-0L0.199,-0Z" style="fill:white;fill-rule:nonzero;"/>
            </g>
            <g transform="matrix(600,0,0,600,1440.14,1074.94)">
                <path d="M0.419,-0.262L0.218,-0.262L0.317,-0.527L0.419,-0.262ZM0.27,-0.68L0.01,-0L0.121,-0L0.185,-0.171L0.454,-0.171L0.52,0.009L0.632,-0.007L0.368,-0.68L0.27,-0.68Z" style="fill:white;fill-rule:nonzero;"/>
            </g>
            <g transform="matrix(600,0,0,600,1825.34,1074.94)">
                <path d="M0.049,-0.041C0.058,-0.034 0.071,-0.028 0.087,-0.021C0.103,-0.015 0.121,-0.01 0.14,-0.005C0.159,0 0.177,0.005 0.196,0.008C0.215,0.011 0.231,0.013 0.245,0.013C0.299,0.013 0.344,0.005 0.381,-0.012C0.418,-0.028 0.446,-0.05 0.466,-0.077C0.485,-0.104 0.495,-0.136 0.495,-0.172C0.495,-0.199 0.49,-0.223 0.48,-0.244C0.47,-0.264 0.456,-0.282 0.439,-0.298C0.422,-0.314 0.402,-0.329 0.379,-0.343C0.356,-0.356 0.331,-0.37 0.305,-0.383C0.274,-0.399 0.247,-0.413 0.224,-0.426C0.201,-0.439 0.183,-0.452 0.171,-0.467C0.158,-0.481 0.152,-0.498 0.152,-0.518C0.152,-0.545 0.163,-0.565 0.186,-0.578C0.209,-0.591 0.237,-0.597 0.27,-0.597C0.291,-0.597 0.31,-0.595 0.327,-0.592C0.344,-0.588 0.359,-0.583 0.374,-0.577C0.388,-0.571 0.401,-0.565 0.414,-0.558L0.451,-0.648C0.427,-0.66 0.399,-0.671 0.366,-0.681C0.333,-0.691 0.3,-0.696 0.266,-0.696C0.218,-0.696 0.177,-0.688 0.143,-0.672C0.109,-0.656 0.083,-0.635 0.065,-0.608C0.047,-0.581 0.038,-0.551 0.038,-0.517C0.038,-0.491 0.043,-0.468 0.053,-0.448C0.062,-0.427 0.076,-0.409 0.093,-0.392C0.11,-0.375 0.13,-0.36 0.153,-0.345C0.175,-0.331 0.2,-0.317 0.227,-0.303C0.256,-0.289 0.282,-0.276 0.306,-0.263C0.329,-0.25 0.347,-0.236 0.36,-0.222C0.373,-0.208 0.38,-0.191 0.38,-0.172C0.38,-0.154 0.375,-0.139 0.365,-0.126C0.354,-0.113 0.339,-0.103 0.319,-0.096C0.299,-0.089 0.274,-0.086 0.244,-0.086C0.224,-0.086 0.203,-0.089 0.183,-0.094C0.162,-0.099 0.142,-0.105 0.123,-0.112C0.104,-0.118 0.088,-0.125 0.075,-0.131L0.049,-0.041Z" style="fill:white;fill-rule:nonzero;"/>
            </g>
        </g>
        <g transform="matrix(2.62617,0,0,2.55594,4478.97,-3591.15)">
            <g transform="matrix(400,0,0,400,-1009.13,2959.9)">
                <path d="M0.225,-0.579C0.18,-0.579 0.143,-0.573 0.112,-0.562C0.081,-0.55 0.057,-0.538 0.038,-0.527L0.061,-0.437C0.073,-0.444 0.087,-0.451 0.102,-0.459C0.118,-0.467 0.136,-0.474 0.155,-0.48C0.174,-0.485 0.195,-0.488 0.218,-0.488C0.253,-0.488 0.281,-0.481 0.303,-0.467C0.324,-0.452 0.335,-0.43 0.335,-0.401C0.335,-0.386 0.331,-0.371 0.323,-0.356C0.315,-0.34 0.303,-0.324 0.288,-0.308C0.273,-0.291 0.254,-0.273 0.232,-0.254L0.025,-0.075L0.025,-0L0.464,-0L0.449,-0.086L0.177,-0.086L0.289,-0.179C0.325,-0.21 0.353,-0.237 0.374,-0.262C0.395,-0.286 0.41,-0.31 0.419,-0.334C0.428,-0.357 0.433,-0.383 0.433,-0.411C0.433,-0.445 0.425,-0.475 0.407,-0.5C0.391,-0.525 0.367,-0.545 0.336,-0.559C0.305,-0.572 0.268,-0.579 0.225,-0.579Z" style="fill:white;fill-rule:nonzero;"/>
            </g>
            <g transform="matrix(400,0,0,400,-815.532,2959.9)">
                <path d="M0.028,-0.286C0.028,-0.228 0.04,-0.177 0.063,-0.132C0.086,-0.086 0.118,-0.051 0.16,-0.025C0.201,0 0.248,0.013 0.301,0.013C0.354,0.013 0.401,-0 0.442,-0.026C0.483,-0.052 0.516,-0.088 0.539,-0.133C0.562,-0.178 0.574,-0.23 0.574,-0.288C0.574,-0.344 0.562,-0.394 0.539,-0.438C0.516,-0.482 0.484,-0.517 0.443,-0.542C0.402,-0.567 0.354,-0.579 0.301,-0.579C0.248,-0.579 0.202,-0.566 0.161,-0.541C0.119,-0.516 0.087,-0.481 0.064,-0.437C0.04,-0.393 0.028,-0.343 0.028,-0.286ZM0.133,-0.289C0.133,-0.327 0.14,-0.36 0.155,-0.389C0.17,-0.418 0.19,-0.441 0.215,-0.458C0.24,-0.475 0.269,-0.484 0.301,-0.484C0.334,-0.484 0.364,-0.475 0.389,-0.458C0.414,-0.441 0.434,-0.417 0.449,-0.387C0.464,-0.357 0.471,-0.323 0.471,-0.284C0.471,-0.245 0.464,-0.211 0.449,-0.181C0.434,-0.15 0.414,-0.126 0.389,-0.109C0.364,-0.092 0.335,-0.083 0.302,-0.083C0.269,-0.083 0.24,-0.092 0.215,-0.11C0.19,-0.127 0.17,-0.152 0.155,-0.183C0.14,-0.214 0.133,-0.249 0.133,-0.289Z" style="fill:white;fill-rule:nonzero;"/>
            </g>
            <g transform="matrix(400,0,0,400,-575.132,2959.9)">
                <path d="M0.225,-0.579C0.18,-0.579 0.143,-0.573 0.112,-0.562C0.081,-0.55 0.057,-0.538 0.038,-0.527L0.061,-0.437C0.073,-0.444 0.087,-0.451 0.102,-0.459C0.118,-0.467 0.136,-0.474 0.155,-0.48C0.174,-0.485 0.195,-0.488 0.218,-0.488C0.253,-0.488 0.281,-0.481 0.303,-0.467C0.324,-0.452 0.335,-0.43 0.335,-0.401C0.335,-0.386 0.331,-0.371 0.323,-0.356C0.315,-0.34 0.303,-0.324 0.288,-0.308C0.273,-0.291 0.254,-0.273 0.232,-0.254L0.025,-0.075L0.025,-0L0.464,-0L0.449,-0.086L0.177,-0.086L0.289,-0.179C0.325,-0.21 0.353,-0.237 0.374,-0.262C0.395,-0.286 0.41,-0.31 0.419,-0.334C0.428,-0.357 0.433,-0.383 0.433,-0.411C0.433,-0.445 0.425,-0.475 0.407,-0.5C0.391,-0.525 0.367,-0.545 0.336,-0.559C0.305,-0.572 0.268,-0.579 0.225,-0.579Z" style="fill:white;fill-rule:nonzero;"/>
            </g>
            <g transform="matrix(400,0,0,400,-381.532,2959.9)">
                <path d="M0.225,-0.579C0.18,-0.579 0.143,-0.573 0.112,-0.562C0.081,-0.55 0.057,-0.538 0.038,-0.527L0.061,-0.437C0.073,-0.444 0.087,-0.451 0.102,-0.459C0.118,-0.467 0.136,-0.474 0.155,-0.48C0.174,-0.485 0.195,-0.488 0.218,-0.488C0.253,-0.488 0.281,-0.481 0.303,-0.467C0.324,-0.452 0.335,-0.43 0.335,-0.401C0.335,-0.386 0.331,-0.371 0.323,-0.356C0.315,-0.34 0.303,-0.324 0.288,-0.308C0.273,-0.291 0.254,-0.273 0.232,-0.254L0.025,-0.075L0.025,-0L0.464,-0L0.449,-0.086L0.177,-0.086L0.289,-0.179C0.325,-0.21 0.353,-0.237 0.374,-0.262C0.395,-0.286 0.41,-0.31 0.419,-0.334C0.428,-0.357 0.433,-0.383 0.433,-0.411C0.433,-0.445 0.425,-0.475 0.407,-0.5C0.391,-0.525 0.367,-0.545 0.336,-0.559C0.305,-0.572 0.268,-0.579 0.225,-0.579Z" style="fill:white;fill-rule:nonzero;"/>
            </g>
        </g>
    </g>
</svg>
