<?xml version="1.0" encoding="UTF-8" standalone="no"?>
<!DOCTYPE svg PUBLIC "-//W3C//DTD SVG 1.1//EN" "http://www.w3.org/Graphics/SVG/1.1/DTD/svg11.dtd">
<svg width="100%" height="100%" viewBox="0 0 5906 2953" version="1.1" xmlns="http://www.w3.org/2000/svg" xmlns:xlink="http://www.w3.org/1999/xlink" xml:space="preserve" xmlns:serif="http://www.serif.com/" style="fill-rule:evenodd;clip-rule:evenodd;stroke-linecap:round;stroke-linejoin:round;stroke-miterlimit:1.5;">
    <g id="Top-Level" transform="matrix(1,0,0,1,0,163.534)">
        <g id="URL" transform="matrix(1,0,0,1,616.633,1147.5)">
            <g transform="matrix(300,0,0,300,844.545,1369.66)">
                <path d="M0.065,-0L0.065,-0.519L0.144,-0.519L0.144,-0.44C0.164,-0.477 0.183,-0.501 0.2,-0.513C0.217,-0.524 0.236,-0.53 0.256,-0.53C0.286,-0.53 0.316,-0.521 0.347,-0.502L0.316,-0.42C0.295,-0.433 0.273,-0.439 0.252,-0.439C0.233,-0.439 0.215,-0.434 0.2,-0.422C0.185,-0.411 0.174,-0.395 0.167,-0.374C0.158,-0.343 0.153,-0.309 0.153,-0.271L0.153,-0L0.065,-0Z" style="fill:rgb(0,58,101);fill-rule:nonzero;"/>
            </g>
            <g transform="matrix(300,0,0,300,944.448,1369.66)">
                <path d="M0.421,-0.167L0.512,-0.156C0.497,-0.103 0.471,-0.062 0.432,-0.032C0.393,-0.003 0.344,0.012 0.284,0.012C0.208,0.012 0.148,-0.012 0.103,-0.058C0.059,-0.105 0.037,-0.171 0.037,-0.255C0.037,-0.342 0.059,-0.41 0.104,-0.458C0.149,-0.506 0.207,-0.53 0.279,-0.53C0.348,-0.53 0.405,-0.507 0.449,-0.459C0.493,-0.412 0.515,-0.346 0.515,-0.26C0.515,-0.255 0.514,-0.247 0.514,-0.237L0.127,-0.237C0.131,-0.18 0.147,-0.136 0.176,-0.106C0.205,-0.076 0.241,-0.061 0.284,-0.061C0.316,-0.061 0.344,-0.069 0.367,-0.086C0.389,-0.103 0.408,-0.13 0.421,-0.167ZM0.132,-0.309L0.422,-0.309C0.418,-0.353 0.407,-0.385 0.389,-0.407C0.361,-0.441 0.324,-0.458 0.28,-0.458C0.239,-0.458 0.205,-0.444 0.178,-0.417C0.15,-0.39 0.135,-0.354 0.132,-0.309Z" style="fill:rgb(0,58,101);fill-rule:nonzero;"/>
            </g>
            <g transform="matrix(300,0,0,300,1111.29,1369.66)">
                <path d="M0.031,-0.155L0.118,-0.168C0.123,-0.134 0.136,-0.107 0.158,-0.088C0.181,-0.07 0.212,-0.061 0.252,-0.061C0.292,-0.061 0.322,-0.069 0.342,-0.085C0.361,-0.102 0.371,-0.121 0.371,-0.143C0.371,-0.163 0.362,-0.179 0.345,-0.19C0.333,-0.198 0.303,-0.208 0.255,-0.22C0.191,-0.236 0.146,-0.25 0.121,-0.262C0.096,-0.274 0.078,-0.29 0.065,-0.311C0.052,-0.332 0.045,-0.355 0.045,-0.381C0.045,-0.404 0.051,-0.425 0.061,-0.445C0.072,-0.465 0.086,-0.481 0.104,-0.494C0.118,-0.504 0.137,-0.513 0.16,-0.52C0.184,-0.527 0.209,-0.53 0.236,-0.53C0.277,-0.53 0.313,-0.524 0.344,-0.513C0.374,-0.501 0.397,-0.485 0.412,-0.465C0.426,-0.445 0.436,-0.418 0.442,-0.385L0.356,-0.373C0.352,-0.4 0.341,-0.421 0.322,-0.436C0.303,-0.451 0.277,-0.458 0.243,-0.458C0.202,-0.458 0.174,-0.451 0.156,-0.438C0.139,-0.425 0.13,-0.409 0.13,-0.391C0.13,-0.38 0.134,-0.369 0.141,-0.36C0.148,-0.351 0.16,-0.343 0.175,-0.337C0.184,-0.334 0.209,-0.326 0.252,-0.314C0.315,-0.298 0.358,-0.284 0.383,-0.274C0.407,-0.263 0.426,-0.248 0.44,-0.228C0.454,-0.207 0.461,-0.182 0.461,-0.152C0.461,-0.123 0.453,-0.095 0.436,-0.07C0.419,-0.044 0.394,-0.024 0.362,-0.01C0.33,0.005 0.293,0.012 0.252,0.012C0.185,0.012 0.134,-0.002 0.098,-0.03C0.063,-0.058 0.041,-0.1 0.031,-0.155Z" style="fill:rgb(0,58,101);fill-rule:nonzero;"/>
            </g>
            <g transform="matrix(300,0,0,300,1261.29,1369.66)">
                <path d="M0.421,-0.167L0.512,-0.156C0.497,-0.103 0.471,-0.062 0.432,-0.032C0.393,-0.003 0.344,0.012 0.284,0.012C0.208,0.012 0.148,-0.012 0.103,-0.058C0.059,-0.105 0.037,-0.171 0.037,-0.255C0.037,-0.342 0.059,-0.41 0.104,-0.458C0.149,-0.506 0.207,-0.53 0.279,-0.53C0.348,-0.53 0.405,-0.507 0.449,-0.459C0.493,-0.412 0.515,-0.346 0.515,-0.26C0.515,-0.255 0.514,-0.247 0.514,-0.237L0.127,-0.237C0.131,-0.18 0.147,-0.136 0.176,-0.106C0.205,-0.076 0.241,-0.061 0.284,-0.061C0.316,-0.061 0.344,-0.069 0.367,-0.086C0.389,-0.103 0.408,-0.13 0.421,-0.167ZM0.132,-0.309L0.422,-0.309C0.418,-0.353 0.407,-0.385 0.389,-0.407C0.361,-0.441 0.324,-0.458 0.28,-0.458C0.239,-0.458 0.205,-0.444 0.178,-0.417C0.15,-0.39 0.135,-0.354 0.132,-0.309Z" style="fill:rgb(0,58,101);fill-rule:nonzero;"/>
            </g>
            <g transform="matrix(300,0,0,300,1428.14,1369.66)">
                <path d="M0.404,-0.064C0.372,-0.036 0.34,-0.017 0.31,-0.005C0.28,0.006 0.248,0.012 0.213,0.012C0.156,0.012 0.113,-0.002 0.082,-0.03C0.051,-0.058 0.036,-0.093 0.036,-0.137C0.036,-0.162 0.042,-0.185 0.053,-0.206C0.065,-0.227 0.08,-0.244 0.099,-0.257C0.118,-0.27 0.139,-0.279 0.162,-0.286C0.179,-0.29 0.205,-0.295 0.24,-0.299C0.311,-0.307 0.363,-0.317 0.397,-0.329C0.397,-0.341 0.397,-0.349 0.397,-0.352C0.397,-0.388 0.389,-0.413 0.373,-0.428C0.35,-0.448 0.317,-0.458 0.272,-0.458C0.231,-0.458 0.201,-0.45 0.181,-0.436C0.161,-0.421 0.147,-0.396 0.137,-0.359L0.051,-0.371C0.059,-0.407 0.072,-0.437 0.09,-0.46C0.108,-0.482 0.134,-0.5 0.167,-0.512C0.201,-0.524 0.241,-0.53 0.285,-0.53C0.329,-0.53 0.365,-0.525 0.393,-0.515C0.421,-0.504 0.441,-0.491 0.454,-0.475C0.467,-0.46 0.476,-0.44 0.481,-0.416C0.484,-0.401 0.486,-0.374 0.486,-0.334L0.486,-0.217C0.486,-0.136 0.488,-0.084 0.491,-0.062C0.495,-0.041 0.503,-0.02 0.514,-0L0.422,-0C0.413,-0.018 0.407,-0.04 0.404,-0.064ZM0.397,-0.26C0.365,-0.247 0.317,-0.236 0.253,-0.227C0.217,-0.222 0.192,-0.216 0.177,-0.209C0.162,-0.203 0.15,-0.193 0.142,-0.181C0.134,-0.168 0.13,-0.154 0.13,-0.139C0.13,-0.116 0.139,-0.096 0.156,-0.081C0.174,-0.065 0.2,-0.057 0.234,-0.057C0.268,-0.057 0.298,-0.065 0.325,-0.079C0.351,-0.094 0.37,-0.114 0.383,-0.14C0.392,-0.16 0.397,-0.189 0.397,-0.228L0.397,-0.26Z" style="fill:rgb(0,58,101);fill-rule:nonzero;"/>
            </g>
            <g transform="matrix(300,0,0,300,1594.98,1369.66)">
                <path d="M0.065,-0L0.065,-0.519L0.144,-0.519L0.144,-0.44C0.164,-0.477 0.183,-0.501 0.2,-0.513C0.217,-0.524 0.236,-0.53 0.256,-0.53C0.286,-0.53 0.316,-0.521 0.347,-0.502L0.316,-0.42C0.295,-0.433 0.273,-0.439 0.252,-0.439C0.233,-0.439 0.215,-0.434 0.2,-0.422C0.185,-0.411 0.174,-0.395 0.167,-0.374C0.158,-0.343 0.153,-0.309 0.153,-0.271L0.153,-0L0.065,-0Z" style="fill:rgb(0,58,101);fill-rule:nonzero;"/>
            </g>
            <g transform="matrix(300,0,0,300,1694.89,1369.66)">
                <path d="M0.404,-0.19L0.491,-0.179C0.481,-0.119 0.457,-0.073 0.418,-0.039C0.379,-0.005 0.332,0.012 0.275,0.012C0.204,0.012 0.147,-0.011 0.104,-0.058C0.061,-0.104 0.039,-0.171 0.039,-0.257C0.039,-0.313 0.048,-0.362 0.067,-0.404C0.085,-0.446 0.114,-0.478 0.152,-0.499C0.19,-0.52 0.231,-0.53 0.275,-0.53C0.332,-0.53 0.378,-0.516 0.414,-0.488C0.449,-0.459 0.472,-0.419 0.482,-0.366L0.397,-0.353C0.389,-0.388 0.374,-0.414 0.354,-0.432C0.333,-0.449 0.308,-0.458 0.279,-0.458C0.235,-0.458 0.199,-0.442 0.171,-0.41C0.143,-0.379 0.129,-0.328 0.129,-0.26C0.129,-0.19 0.143,-0.139 0.169,-0.108C0.196,-0.076 0.231,-0.061 0.274,-0.061C0.308,-0.061 0.337,-0.071 0.36,-0.092C0.383,-0.113 0.398,-0.146 0.404,-0.19Z" style="fill:rgb(0,58,101);fill-rule:nonzero;"/>
            </g>
            <g transform="matrix(300,0,0,300,1844.89,1369.66)">
                <path d="M0.066,-0L0.066,-0.716L0.154,-0.716L0.154,-0.459C0.195,-0.507 0.247,-0.53 0.309,-0.53C0.347,-0.53 0.381,-0.523 0.409,-0.508C0.438,-0.492 0.458,-0.472 0.47,-0.445C0.482,-0.418 0.488,-0.379 0.488,-0.329L0.488,-0L0.4,-0L0.4,-0.329C0.4,-0.373 0.391,-0.405 0.372,-0.425C0.353,-0.445 0.326,-0.455 0.291,-0.455C0.265,-0.455 0.24,-0.448 0.218,-0.434C0.195,-0.421 0.178,-0.403 0.168,-0.379C0.159,-0.356 0.154,-0.324 0.154,-0.284L0.154,-0L0.066,-0Z" style="fill:rgb(0,58,101);fill-rule:nonzero;"/>
            </g>
            <g transform="matrix(300,0,0,300,2011.73,1369.66)">
                <rect x="0.091" y="-0.1" width="0.1" height="0.1" style="fill:rgb(0,58,101);fill-rule:nonzero;"/>
            </g>
            <g transform="matrix(300,0,0,300,2095.08,1369.66)">
                <path d="M0.066,-0L0.066,-0.519L0.145,-0.519L0.145,-0.445C0.183,-0.502 0.238,-0.53 0.31,-0.53C0.341,-0.53 0.37,-0.525 0.396,-0.513C0.422,-0.502 0.442,-0.487 0.455,-0.469C0.468,-0.451 0.477,-0.429 0.482,-0.404C0.486,-0.388 0.487,-0.36 0.487,-0.319L0.487,-0L0.399,-0L0.399,-0.315C0.399,-0.351 0.396,-0.378 0.389,-0.396C0.382,-0.413 0.37,-0.428 0.353,-0.438C0.335,-0.449 0.315,-0.454 0.292,-0.454C0.254,-0.454 0.222,-0.442 0.195,-0.418C0.167,-0.395 0.154,-0.35 0.154,-0.283L0.154,-0L0.066,-0Z" style="fill:rgb(0,58,101);fill-rule:nonzero;"/>
            </g>
            <g transform="matrix(300,0,0,300,2261.93,1369.66)">
                <path d="M0.404,-0.19L0.491,-0.179C0.481,-0.119 0.457,-0.073 0.418,-0.039C0.379,-0.005 0.332,0.012 0.275,0.012C0.204,0.012 0.147,-0.011 0.104,-0.058C0.061,-0.104 0.039,-0.171 0.039,-0.257C0.039,-0.313 0.048,-0.362 0.067,-0.404C0.085,-0.446 0.114,-0.478 0.152,-0.499C0.19,-0.52 0.231,-0.53 0.275,-0.53C0.332,-0.53 0.378,-0.516 0.414,-0.488C0.449,-0.459 0.472,-0.419 0.482,-0.366L0.397,-0.353C0.389,-0.388 0.374,-0.414 0.354,-0.432C0.333,-0.449 0.308,-0.458 0.279,-0.458C0.235,-0.458 0.199,-0.442 0.171,-0.41C0.143,-0.379 0.129,-0.328 0.129,-0.26C0.129,-0.19 0.143,-0.139 0.169,-0.108C0.196,-0.076 0.231,-0.061 0.274,-0.061C0.308,-0.061 0.337,-0.071 0.36,-0.092C0.383,-0.113 0.398,-0.146 0.404,-0.19Z" style="fill:rgb(0,58,101);fill-rule:nonzero;"/>
            </g>
            <g transform="matrix(300,0,0,300,2411.93,1369.66)">
                <rect x="0.064" y="-0.716" width="0.088" height="0.716" style="fill:rgb(0,58,101);fill-rule:nonzero;"/>
            </g>
            <g transform="matrix(300,0,0,300,2478.58,1369.66)">
                <rect x="0.091" y="-0.1" width="0.1" height="0.1" style="fill:rgb(0,58,101);fill-rule:nonzero;"/>
            </g>
            <g transform="matrix(300,0,0,300,2561.93,1369.66)">
                <path d="M0.404,-0.064C0.372,-0.036 0.34,-0.017 0.31,-0.005C0.28,0.006 0.248,0.012 0.213,0.012C0.156,0.012 0.113,-0.002 0.082,-0.03C0.051,-0.058 0.036,-0.093 0.036,-0.137C0.036,-0.162 0.042,-0.185 0.053,-0.206C0.065,-0.227 0.08,-0.244 0.099,-0.257C0.118,-0.27 0.139,-0.279 0.162,-0.286C0.179,-0.29 0.205,-0.295 0.24,-0.299C0.311,-0.307 0.363,-0.317 0.397,-0.329C0.397,-0.341 0.397,-0.349 0.397,-0.352C0.397,-0.388 0.389,-0.413 0.373,-0.428C0.35,-0.448 0.317,-0.458 0.272,-0.458C0.231,-0.458 0.201,-0.45 0.181,-0.436C0.161,-0.421 0.147,-0.396 0.137,-0.359L0.051,-0.371C0.059,-0.407 0.072,-0.437 0.09,-0.46C0.108,-0.482 0.134,-0.5 0.167,-0.512C0.201,-0.524 0.241,-0.53 0.285,-0.53C0.329,-0.53 0.365,-0.525 0.393,-0.515C0.421,-0.504 0.441,-0.491 0.454,-0.475C0.467,-0.46 0.476,-0.44 0.481,-0.416C0.484,-0.401 0.486,-0.374 0.486,-0.334L0.486,-0.217C0.486,-0.136 0.488,-0.084 0.491,-0.062C0.495,-0.041 0.503,-0.02 0.514,-0L0.422,-0C0.413,-0.018 0.407,-0.04 0.404,-0.064ZM0.397,-0.26C0.365,-0.247 0.317,-0.236 0.253,-0.227C0.217,-0.222 0.192,-0.216 0.177,-0.209C0.162,-0.203 0.15,-0.193 0.142,-0.181C0.134,-0.168 0.13,-0.154 0.13,-0.139C0.13,-0.116 0.139,-0.096 0.156,-0.081C0.174,-0.065 0.2,-0.057 0.234,-0.057C0.268,-0.057 0.298,-0.065 0.325,-0.079C0.351,-0.094 0.37,-0.114 0.383,-0.14C0.392,-0.16 0.397,-0.189 0.397,-0.228L0.397,-0.26Z" style="fill:rgb(0,58,101);fill-rule:nonzero;"/>
            </g>
            <g transform="matrix(300,0,0,300,2728.77,1369.66)">
                <path d="M0.404,-0.19L0.491,-0.179C0.481,-0.119 0.457,-0.073 0.418,-0.039C0.379,-0.005 0.332,0.012 0.275,0.012C0.204,0.012 0.147,-0.011 0.104,-0.058C0.061,-0.104 0.039,-0.171 0.039,-0.257C0.039,-0.313 0.048,-0.362 0.067,-0.404C0.085,-0.446 0.114,-0.478 0.152,-0.499C0.19,-0.52 0.231,-0.53 0.275,-0.53C0.332,-0.53 0.378,-0.516 0.414,-0.488C0.449,-0.459 0.472,-0.419 0.482,-0.366L0.397,-0.353C0.389,-0.388 0.374,-0.414 0.354,-0.432C0.333,-0.449 0.308,-0.458 0.279,-0.458C0.235,-0.458 0.199,-0.442 0.171,-0.41C0.143,-0.379 0.129,-0.328 0.129,-0.26C0.129,-0.19 0.143,-0.139 0.169,-0.108C0.196,-0.076 0.231,-0.061 0.274,-0.061C0.308,-0.061 0.337,-0.071 0.36,-0.092C0.383,-0.113 0.398,-0.146 0.404,-0.19Z" style="fill:rgb(0,58,101);fill-rule:nonzero;"/>
            </g>
            <g transform="matrix(300,0,0,300,2878.77,1369.66)">
                <rect x="0.091" y="-0.1" width="0.1" height="0.1" style="fill:rgb(0,58,101);fill-rule:nonzero;"/>
            </g>
            <g transform="matrix(300,0,0,300,2962.12,1369.66)">
                <path d="M0.406,-0L0.406,-0.076C0.365,-0.018 0.311,0.012 0.241,0.012C0.211,0.012 0.182,0.006 0.156,-0.006C0.129,-0.018 0.109,-0.032 0.096,-0.05C0.084,-0.068 0.075,-0.09 0.069,-0.115C0.066,-0.132 0.064,-0.16 0.064,-0.197L0.064,-0.519L0.152,-0.519L0.152,-0.231C0.152,-0.185 0.154,-0.154 0.157,-0.138C0.163,-0.115 0.174,-0.097 0.192,-0.084C0.21,-0.071 0.232,-0.064 0.259,-0.064C0.285,-0.064 0.31,-0.071 0.333,-0.084C0.356,-0.098 0.372,-0.116 0.382,-0.139C0.392,-0.163 0.396,-0.196 0.396,-0.241L0.396,-0.519L0.484,-0.519L0.484,-0L0.406,-0Z" style="fill:rgb(0,58,101);fill-rule:nonzero;"/>
            </g>
            <g transform="matrix(300,0,0,300,3128.97,1369.66)">
                <path d="M0.066,-0L0.066,-0.716L0.154,-0.716L0.154,-0.308L0.362,-0.519L0.476,-0.519L0.278,-0.326L0.496,-0L0.388,-0L0.216,-0.265L0.154,-0.206L0.154,-0L0.066,-0Z" style="fill:rgb(0,58,101);fill-rule:nonzero;"/>
            </g>
            <g transform="matrix(300,0,0,300,3278.97,1369.66)">
                <path d="M0,0.012L0.208,-0.728L0.278,-0.728L0.071,0.012L0,0.012Z" style="fill:rgb(0,58,101);fill-rule:nonzero;"/>
            </g>
            <g transform="matrix(300,0,0,300,3362.32,1369.66)">
                <path d="M0.066,-0L0.066,-0.519L0.145,-0.519L0.145,-0.445C0.183,-0.502 0.238,-0.53 0.31,-0.53C0.341,-0.53 0.37,-0.525 0.396,-0.513C0.422,-0.502 0.442,-0.487 0.455,-0.469C0.468,-0.451 0.477,-0.429 0.482,-0.404C0.486,-0.388 0.487,-0.36 0.487,-0.319L0.487,-0L0.399,-0L0.399,-0.315C0.399,-0.351 0.396,-0.378 0.389,-0.396C0.382,-0.413 0.37,-0.428 0.353,-0.438C0.335,-0.449 0.315,-0.454 0.292,-0.454C0.254,-0.454 0.222,-0.442 0.195,-0.418C0.167,-0.395 0.154,-0.35 0.154,-0.283L0.154,-0L0.066,-0Z" style="fill:rgb(0,58,101);fill-rule:nonzero;"/>
            </g>
            <g transform="matrix(300,0,0,300,3529.16,1369.66)">
                <path d="M0.404,-0.064C0.372,-0.036 0.34,-0.017 0.31,-0.005C0.28,0.006 0.248,0.012 0.213,0.012C0.156,0.012 0.113,-0.002 0.082,-0.03C0.051,-0.058 0.036,-0.093 0.036,-0.137C0.036,-0.162 0.042,-0.185 0.053,-0.206C0.065,-0.227 0.08,-0.244 0.099,-0.257C0.118,-0.27 0.139,-0.279 0.162,-0.286C0.179,-0.29 0.205,-0.295 0.24,-0.299C0.311,-0.307 0.363,-0.317 0.397,-0.329C0.397,-0.341 0.397,-0.349 0.397,-0.352C0.397,-0.388 0.389,-0.413 0.373,-0.428C0.35,-0.448 0.317,-0.458 0.272,-0.458C0.231,-0.458 0.201,-0.45 0.181,-0.436C0.161,-0.421 0.147,-0.396 0.137,-0.359L0.051,-0.371C0.059,-0.407 0.072,-0.437 0.09,-0.46C0.108,-0.482 0.134,-0.5 0.167,-0.512C0.201,-0.524 0.241,-0.53 0.285,-0.53C0.329,-0.53 0.365,-0.525 0.393,-0.515C0.421,-0.504 0.441,-0.491 0.454,-0.475C0.467,-0.46 0.476,-0.44 0.481,-0.416C0.484,-0.401 0.486,-0.374 0.486,-0.334L0.486,-0.217C0.486,-0.136 0.488,-0.084 0.491,-0.062C0.495,-0.041 0.503,-0.02 0.514,-0L0.422,-0C0.413,-0.018 0.407,-0.04 0.404,-0.064ZM0.397,-0.26C0.365,-0.247 0.317,-0.236 0.253,-0.227C0.217,-0.222 0.192,-0.216 0.177,-0.209C0.162,-0.203 0.15,-0.193 0.142,-0.181C0.134,-0.168 0.13,-0.154 0.13,-0.139C0.13,-0.116 0.139,-0.096 0.156,-0.081C0.174,-0.065 0.2,-0.057 0.234,-0.057C0.268,-0.057 0.298,-0.065 0.325,-0.079C0.351,-0.094 0.37,-0.114 0.383,-0.14C0.392,-0.16 0.397,-0.189 0.397,-0.228L0.397,-0.26Z" style="fill:rgb(0,58,101);fill-rule:nonzero;"/>
            </g>
            <g transform="matrix(300,0,0,300,3696.01,1369.66)">
                <path d="M0.066,-0.615L0.066,-0.716L0.154,-0.716L0.154,-0.615L0.066,-0.615ZM0.066,-0L0.066,-0.519L0.154,-0.519L0.154,-0L0.066,-0Z" style="fill:rgb(0,58,101);fill-rule:nonzero;"/>
            </g>
            <g transform="matrix(300,0,0,300,3762.66,1369.66)">
                <rect x="0.064" y="-0.716" width="0.088" height="0.716" style="fill:rgb(0,58,101);fill-rule:nonzero;"/>
            </g>
        </g>
        <g id="Logo" transform="matrix(1,0,0,1,-1.81899e-12,-1431.9)">
            <g id="Edges">
                <g id="_4-5-Edges" serif:id="4-5 Edges">
                    <path d="M4343.61,2148.77L5734.46,2349.03" style="fill:none;stroke:rgb(0,58,101);stroke-width:36.92px;"/>
                    <path d="M4343.61,2549.28L5734.46,2349.03" style="fill:none;stroke:rgb(0,58,101);stroke-width:36.92px;"/>
                    <path d="M4343.61,2549.28L5734.46,2749.54" style="fill:none;stroke:rgb(0,58,101);stroke-width:36.92px;"/>
                    <path d="M4343.61,2949.79L5734.46,2749.54" style="fill:none;stroke:rgb(0,58,101);stroke-width:36.92px;"/>
                    <path d="M4343.61,2949.79L5734.46,3150.05" style="fill:none;stroke:rgb(0,58,101);stroke-width:36.92px;"/>
                    <path d="M4343.61,3350.3L5734.46,3150.05" style="fill:none;stroke:rgb(0,58,101);stroke-width:36.92px;"/>
                </g>
                <g id="_3-4-Edges" serif:id="3-4 Edges">
                    <path d="M4343.61,2148.77L2952.76,1945.92" style="fill:none;stroke:rgb(0,58,101);stroke-width:36.92px;"/>
                    <path d="M4343.61,2148.77L2952.76,2347.73" style="fill:none;stroke:rgb(0,58,101);stroke-width:36.92px;"/>
                    <path d="M4343.61,2549.28L2952.76,2347.73" style="fill:none;stroke:rgb(0,58,101);stroke-width:36.92px;"/>
                    <path d="M4343.61,2549.28L2952.76,2749.54" style="fill:none;stroke:rgb(0,58,101);stroke-width:36.92px;"/>
                    <path d="M4343.61,2949.79L2952.76,2749.54" style="fill:none;stroke:rgb(0,58,101);stroke-width:36.92px;"/>
                    <path d="M4343.61,2949.79L2952.76,3151.35" style="fill:none;stroke:rgb(0,58,101);stroke-width:36.92px;"/>
                    <path d="M4343.61,3350.3L2952.76,3151.35" style="fill:none;stroke:rgb(0,58,101);stroke-width:36.92px;"/>
                    <path d="M4343.61,3350.3L2952.76,3553.15" style="fill:none;stroke:rgb(0,58,101);stroke-width:36.92px;"/>
                </g>
                <g id="_2-3-Edges" serif:id="2-3 Edges">
                    <path d="M1561.9,2148.77L2952.76,1945.92" style="fill:none;stroke:rgb(0,58,101);stroke-width:36.92px;"/>
                    <path d="M1561.9,2148.77L2952.76,2347.73" style="fill:none;stroke:rgb(0,58,101);stroke-width:36.92px;"/>
                    <path d="M1561.9,2549.28L2952.76,2347.73" style="fill:none;stroke:rgb(0,58,101);stroke-width:36.92px;"/>
                    <path d="M1561.9,2549.28L2952.76,2749.54" style="fill:none;stroke:rgb(0,58,101);stroke-width:36.92px;"/>
                    <path d="M1561.9,2949.79L2952.76,2749.54" style="fill:none;stroke:rgb(0,58,101);stroke-width:36.92px;"/>
                    <path d="M1561.9,2949.79L2952.76,3151.35" style="fill:none;stroke:rgb(0,58,101);stroke-width:36.92px;"/>
                    <path d="M1561.9,3350.3L2952.76,3151.35" style="fill:none;stroke:rgb(0,58,101);stroke-width:36.92px;"/>
                    <path d="M1561.9,3350.3L2952.76,3553.15" style="fill:none;stroke:rgb(0,58,101);stroke-width:36.92px;"/>
                </g>
                <g id="_1-2-Edges" serif:id="1-2 Edges">
                    <path d="M1561.9,2549.28L171.048,2349.03" style="fill:none;stroke:rgb(0,58,101);stroke-width:36.92px;"/>
                    <path d="M1561.9,2148.77L171.048,2349.03" style="fill:none;stroke:rgb(0,58,101);stroke-width:36.92px;"/>
                    <path d="M171.048,2749.54L1561.9,2549.28" style="fill:none;stroke:rgb(0,58,101);stroke-width:36.92px;"/>
                    <path d="M171.048,2749.54L1561.9,2949.79" style="fill:none;stroke:rgb(0,58,101);stroke-width:36.92px;"/>
                    <path d="M171.048,3150.05L1561.9,2949.79" style="fill:none;stroke:rgb(0,58,101);stroke-width:36.92px;"/>
                    <path d="M171.048,3150.05L1561.9,3350.3" style="fill:none;stroke:rgb(0,58,101);stroke-width:36.92px;"/>
                </g>
            </g>
            <g id="Net" transform="matrix(1,0,0,1,-15.8529,3.20142e-10)">
                <g id="_3NodeLayer" serif:id="3NodeLayer" transform="matrix(1,0,0,1,1387.55,203.763)">
                    <g id="Node" transform="matrix(0.682268,0,0,0.674439,1422.33,1486.34)">
                        <circle cx="4309.8" cy="2164.68" r="106.854" style="fill:rgb(235,235,235);"/>
                        <path d="M4309.8,1983.2C4209.88,1983.2 4129.18,2064.76 4129.18,2164.68C4129.18,2264.6 4209.88,2346.16 4309.8,2346.16C4409.73,2346.16 4490.43,2264.6 4490.43,2164.68C4490.43,2064.76 4409.73,1983.2 4309.8,1983.2ZM4309.8,2057.83C4368.78,2057.83 4416.66,2105.71 4416.66,2164.68C4416.66,2223.66 4368.78,2271.53 4309.8,2271.53C4250.83,2271.53 4202.95,2223.66 4202.95,2164.68C4202.95,2105.71 4250.83,2057.83 4309.8,2057.83Z" style="fill:rgb(0,58,101);"/>
                    </g>
                    <g id="Node1" serif:id="Node" transform="matrix(0.682268,0,0,0.674439,1422.33,1085.83)">
                        <circle cx="4309.8" cy="2164.68" r="106.854" style="fill:rgb(235,235,235);"/>
                        <path d="M4309.8,1983.2C4209.88,1983.2 4129.18,2064.76 4129.18,2164.68C4129.18,2264.6 4209.88,2346.16 4309.8,2346.16C4409.73,2346.16 4490.43,2264.6 4490.43,2164.68C4490.43,2064.76 4409.73,1983.2 4309.8,1983.2ZM4309.8,2057.83C4368.78,2057.83 4416.66,2105.71 4416.66,2164.68C4416.66,2223.66 4368.78,2271.53 4309.8,2271.53C4250.83,2271.53 4202.95,2223.66 4202.95,2164.68C4202.95,2105.71 4250.83,2057.83 4309.8,2057.83Z" style="fill:rgb(0,58,101);"/>
                    </g>
                    <g id="Node2" serif:id="Node" transform="matrix(0.682268,0,0,0.674439,1422.33,685.321)">
                        <circle cx="4309.8" cy="2164.68" r="106.854" style="fill:rgb(235,235,235);"/>
                        <path d="M4309.8,1983.2C4209.88,1983.2 4129.18,2064.76 4129.18,2164.68C4129.18,2264.6 4209.88,2346.16 4309.8,2346.16C4409.73,2346.16 4490.43,2264.6 4490.43,2164.68C4490.43,2064.76 4409.73,1983.2 4309.8,1983.2ZM4309.8,2057.83C4368.78,2057.83 4416.66,2105.71 4416.66,2164.68C4416.66,2223.66 4368.78,2271.53 4309.8,2271.53C4250.83,2271.53 4202.95,2223.66 4202.95,2164.68C4202.95,2105.71 4250.83,2057.83 4309.8,2057.83Z" style="fill:rgb(0,58,101);"/>
                    </g>
                </g>
                <g id="_4NodeLayer" serif:id="4NodeLayer" transform="matrix(1,0,0,1,-2.38012,-0.425381)">
                    <g id="Node3" serif:id="Node" transform="matrix(0.682268,0,0,0.674439,1421.4,1890.78)">
                        <circle cx="4309.8" cy="2164.68" r="106.854" style="fill:rgb(235,235,235);"/>
                        <path d="M4309.8,1983.2C4209.88,1983.2 4129.18,2064.76 4129.18,2164.68C4129.18,2264.6 4209.88,2346.16 4309.8,2346.16C4409.73,2346.16 4490.43,2264.6 4490.43,2164.68C4490.43,2064.76 4409.73,1983.2 4309.8,1983.2ZM4309.8,2057.83C4368.78,2057.83 4416.66,2105.71 4416.66,2164.68C4416.66,2223.66 4368.78,2271.53 4309.8,2271.53C4250.83,2271.53 4202.95,2223.66 4202.95,2164.68C4202.95,2105.71 4250.83,2057.83 4309.8,2057.83Z" style="fill:rgb(0,58,101);"/>
                    </g>
                    <g id="Node4" serif:id="Node" transform="matrix(0.682268,0,0,0.674439,1421.4,1490.27)">
                        <circle cx="4309.8" cy="2164.68" r="106.854" style="fill:rgb(235,235,235);"/>
                        <path d="M4309.8,1983.2C4209.88,1983.2 4129.18,2064.76 4129.18,2164.68C4129.18,2264.6 4209.88,2346.16 4309.8,2346.16C4409.73,2346.16 4490.43,2264.6 4490.43,2164.68C4490.43,2064.76 4409.73,1983.2 4309.8,1983.2ZM4309.8,2057.83C4368.78,2057.83 4416.66,2105.71 4416.66,2164.68C4416.66,2223.66 4368.78,2271.53 4309.8,2271.53C4250.83,2271.53 4202.95,2223.66 4202.95,2164.68C4202.95,2105.71 4250.83,2057.83 4309.8,2057.83Z" style="fill:rgb(0,58,101);"/>
                    </g>
                    <g id="Node5" serif:id="Node" transform="matrix(0.682268,0,0,0.674439,1421.4,1089.76)">
                        <circle cx="4309.8" cy="2164.68" r="106.854" style="fill:rgb(235,235,235);"/>
                        <path d="M4309.8,1983.2C4209.88,1983.2 4129.18,2064.76 4129.18,2164.68C4129.18,2264.6 4209.88,2346.16 4309.8,2346.16C4409.73,2346.16 4490.43,2264.6 4490.43,2164.68C4490.43,2064.76 4409.73,1983.2 4309.8,1983.2ZM4309.8,2057.83C4368.78,2057.83 4416.66,2105.71 4416.66,2164.68C4416.66,2223.66 4368.78,2271.53 4309.8,2271.53C4250.83,2271.53 4202.95,2223.66 4202.95,2164.68C4202.95,2105.71 4250.83,2057.83 4309.8,2057.83Z" style="fill:rgb(0,58,101);"/>
                    </g>
                    <g id="Node6" serif:id="Node" transform="matrix(0.682268,0,0,0.674439,1421.4,689.256)">
                        <circle cx="4309.8" cy="2164.68" r="106.854" style="fill:rgb(235,235,235);"/>
                        <path d="M4309.8,1983.2C4209.88,1983.2 4129.18,2064.76 4129.18,2164.68C4129.18,2264.6 4209.88,2346.16 4309.8,2346.16C4409.73,2346.16 4490.43,2264.6 4490.43,2164.68C4490.43,2064.76 4409.73,1983.2 4309.8,1983.2ZM4309.8,2057.83C4368.78,2057.83 4416.66,2105.71 4416.66,2164.68C4416.66,2223.66 4368.78,2271.53 4309.8,2271.53C4250.83,2271.53 4202.95,2223.66 4202.95,2164.68C4202.95,2105.71 4250.83,2057.83 4309.8,2057.83Z" style="fill:rgb(0,58,101);"/>
                    </g>
                </g>
                <g id="_5NodeLayer" serif:id="5NodeLayer" transform="matrix(1,0,0,1,-1395.3,-198.245)">
                    <g id="Node7" serif:id="Node" transform="matrix(0.682268,0,0,0.674439,1423.47,2291.46)">
                        <circle cx="4309.8" cy="2164.68" r="106.854" style="fill:rgb(235,235,235);"/>
                        <path d="M4309.8,1983.2C4209.88,1983.2 4129.18,2064.76 4129.18,2164.68C4129.18,2264.6 4209.88,2346.16 4309.8,2346.16C4409.73,2346.16 4490.43,2264.6 4490.43,2164.68C4490.43,2064.76 4409.73,1983.2 4309.8,1983.2ZM4309.8,2057.83C4368.78,2057.83 4416.66,2105.71 4416.66,2164.68C4416.66,2223.66 4368.78,2271.53 4309.8,2271.53C4250.83,2271.53 4202.95,2223.66 4202.95,2164.68C4202.95,2105.71 4250.83,2057.83 4309.8,2057.83Z" style="fill:rgb(0,58,101);"/>
                    </g>
                    <g id="Node8" serif:id="Node" transform="matrix(0.682268,0,0,0.674439,1423.47,1889.65)">
                        <circle cx="4309.8" cy="2164.68" r="106.854" style="fill:rgb(235,235,235);"/>
                        <path d="M4309.8,1983.2C4209.88,1983.2 4129.18,2064.76 4129.18,2164.68C4129.18,2264.6 4209.88,2346.16 4309.8,2346.16C4409.73,2346.16 4490.43,2264.6 4490.43,2164.68C4490.43,2064.76 4409.73,1983.2 4309.8,1983.2ZM4309.8,2057.83C4368.78,2057.83 4416.66,2105.71 4416.66,2164.68C4416.66,2223.66 4368.78,2271.53 4309.8,2271.53C4250.83,2271.53 4202.95,2223.66 4202.95,2164.68C4202.95,2105.71 4250.83,2057.83 4309.8,2057.83Z" style="fill:rgb(0,58,101);"/>
                    </g>
                    <g id="Node9" serif:id="Node" transform="matrix(0.682268,0,0,0.674439,1423.47,1487.84)">
                        <circle cx="4309.8" cy="2164.68" r="106.854" style="fill:rgb(235,235,235);"/>
                        <path d="M4309.8,1983.2C4209.88,1983.2 4129.18,2064.76 4129.18,2164.68C4129.18,2264.6 4209.88,2346.16 4309.8,2346.16C4409.73,2346.16 4490.43,2264.6 4490.43,2164.68C4490.43,2064.76 4409.73,1983.2 4309.8,1983.2ZM4309.8,2057.83C4368.78,2057.83 4416.66,2105.71 4416.66,2164.68C4416.66,2223.66 4368.78,2271.53 4309.8,2271.53C4250.83,2271.53 4202.95,2223.66 4202.95,2164.68C4202.95,2105.71 4250.83,2057.83 4309.8,2057.83Z" style="fill:rgb(0,58,101);"/>
                    </g>
                    <g id="Node10" serif:id="Node" transform="matrix(0.682268,0,0,0.674439,1423.47,1086.03)">
                        <circle cx="4309.8" cy="2164.68" r="106.854" style="fill:rgb(235,235,235);"/>
                        <path d="M4309.8,1983.2C4209.88,1983.2 4129.18,2064.76 4129.18,2164.68C4129.18,2264.6 4209.88,2346.16 4309.8,2346.16C4409.73,2346.16 4490.43,2264.6 4490.43,2164.68C4490.43,2064.76 4409.73,1983.2 4309.8,1983.2ZM4309.8,2057.83C4368.78,2057.83 4416.66,2105.71 4416.66,2164.68C4416.66,2223.66 4368.78,2271.53 4309.8,2271.53C4250.83,2271.53 4202.95,2223.66 4202.95,2164.68C4202.95,2105.71 4250.83,2057.83 4309.8,2057.83Z" style="fill:rgb(0,58,101);"/>
                    </g>
                    <g id="Node11" serif:id="Node" transform="matrix(0.682268,0,0,0.674439,1423.47,684.22)">
                        <circle cx="4309.8" cy="2164.68" r="106.854" style="fill:rgb(235,235,235);"/>
                        <path d="M4309.8,1983.2C4209.88,1983.2 4129.18,2064.76 4129.18,2164.68C4129.18,2264.6 4209.88,2346.16 4309.8,2346.16C4409.73,2346.16 4490.43,2264.6 4490.43,2164.68C4490.43,2064.76 4409.73,1983.2 4309.8,1983.2ZM4309.8,2057.83C4368.78,2057.83 4416.66,2105.71 4416.66,2164.68C4416.66,2223.66 4368.78,2271.53 4309.8,2271.53C4250.83,2271.53 4202.95,2223.66 4202.95,2164.68C4202.95,2105.71 4250.83,2057.83 4309.8,2057.83Z" style="fill:rgb(0,58,101);"/>
                    </g>
                </g>
                <g id="_4NodeLayer1" serif:id="4NodeLayer" transform="matrix(1,0,0,1,-2784.09,-0.425381)">
                    <g id="Node12" serif:id="Node" transform="matrix(0.682268,0,0,0.674439,1421.4,1890.78)">
                        <circle cx="4309.8" cy="2164.68" r="106.854" style="fill:rgb(235,235,235);"/>
                        <path d="M4309.8,1983.2C4209.88,1983.2 4129.18,2064.76 4129.18,2164.68C4129.18,2264.6 4209.88,2346.16 4309.8,2346.16C4409.73,2346.16 4490.43,2264.6 4490.43,2164.68C4490.43,2064.76 4409.73,1983.2 4309.8,1983.2ZM4309.8,2057.83C4368.78,2057.83 4416.66,2105.71 4416.66,2164.68C4416.66,2223.66 4368.78,2271.53 4309.8,2271.53C4250.83,2271.53 4202.95,2223.66 4202.95,2164.68C4202.95,2105.71 4250.83,2057.83 4309.8,2057.83Z" style="fill:rgb(0,58,101);"/>
                    </g>
                    <g id="Node13" serif:id="Node" transform="matrix(0.682268,0,0,0.674439,1421.4,1490.27)">
                        <circle cx="4309.8" cy="2164.68" r="106.854" style="fill:rgb(235,235,235);"/>
                        <path d="M4309.8,1983.2C4209.88,1983.2 4129.18,2064.76 4129.18,2164.68C4129.18,2264.6 4209.88,2346.16 4309.8,2346.16C4409.73,2346.16 4490.43,2264.6 4490.43,2164.68C4490.43,2064.76 4409.73,1983.2 4309.8,1983.2ZM4309.8,2057.83C4368.78,2057.83 4416.66,2105.71 4416.66,2164.68C4416.66,2223.66 4368.78,2271.53 4309.8,2271.53C4250.83,2271.53 4202.95,2223.66 4202.95,2164.68C4202.95,2105.71 4250.83,2057.83 4309.8,2057.83Z" style="fill:rgb(0,58,101);"/>
                    </g>
                    <g id="Node14" serif:id="Node" transform="matrix(0.682268,0,0,0.674439,1421.4,1089.76)">
                        <circle cx="4309.8" cy="2164.68" r="106.854" style="fill:rgb(235,235,235);"/>
                        <path d="M4309.8,1983.2C4209.88,1983.2 4129.18,2064.76 4129.18,2164.68C4129.18,2264.6 4209.88,2346.16 4309.8,2346.16C4409.73,2346.16 4490.43,2264.6 4490.43,2164.68C4490.43,2064.76 4409.73,1983.2 4309.8,1983.2ZM4309.8,2057.83C4368.78,2057.83 4416.66,2105.71 4416.66,2164.68C4416.66,2223.66 4368.78,2271.53 4309.8,2271.53C4250.83,2271.53 4202.95,2223.66 4202.95,2164.68C4202.95,2105.71 4250.83,2057.83 4309.8,2057.83Z" style="fill:rgb(0,58,101);"/>
                    </g>
                    <g id="Node15" serif:id="Node" transform="matrix(0.682268,0,0,0.674439,1421.4,689.256)">
                        <circle cx="4309.8" cy="2164.68" r="106.854" style="fill:rgb(235,235,235);"/>
                        <path d="M4309.8,1983.2C4209.88,1983.2 4129.18,2064.76 4129.18,2164.68C4129.18,2264.6 4209.88,2346.16 4309.8,2346.16C4409.73,2346.16 4490.43,2264.6 4490.43,2164.68C4490.43,2064.76 4409.73,1983.2 4309.8,1983.2ZM4309.8,2057.83C4368.78,2057.83 4416.66,2105.71 4416.66,2164.68C4416.66,2223.66 4368.78,2271.53 4309.8,2271.53C4250.83,2271.53 4202.95,2223.66 4202.95,2164.68C4202.95,2105.71 4250.83,2057.83 4309.8,2057.83Z" style="fill:rgb(0,58,101);"/>
                    </g>
                </g>
                <g id="_3NodeLayer1" serif:id="3NodeLayer" transform="matrix(1,0,0,1,-4173.9,207.697)">
                    <g id="Node16" serif:id="Node" transform="matrix(0.682268,0,0,0.674439,1420.36,1482.4)">
                        <circle cx="4309.8" cy="2164.68" r="106.854" style="fill:rgb(235,235,235);"/>
                        <path d="M4309.8,1983.2C4209.88,1983.2 4129.18,2064.76 4129.18,2164.68C4129.18,2264.6 4209.88,2346.16 4309.8,2346.16C4409.73,2346.16 4490.43,2264.6 4490.43,2164.68C4490.43,2064.76 4409.73,1983.2 4309.8,1983.2ZM4309.8,2057.83C4368.78,2057.83 4416.66,2105.71 4416.66,2164.68C4416.66,2223.66 4368.78,2271.53 4309.8,2271.53C4250.83,2271.53 4202.95,2223.66 4202.95,2164.68C4202.95,2105.71 4250.83,2057.83 4309.8,2057.83Z" style="fill:rgb(0,58,101);"/>
                    </g>
                    <g id="Node17" serif:id="Node" transform="matrix(0.682268,0,0,0.674439,1420.36,1081.9)">
                        <circle cx="4309.8" cy="2164.68" r="106.854" style="fill:rgb(235,235,235);"/>
                        <path d="M4309.8,1983.2C4209.88,1983.2 4129.18,2064.76 4129.18,2164.68C4129.18,2264.6 4209.88,2346.16 4309.8,2346.16C4409.73,2346.16 4490.43,2264.6 4490.43,2164.68C4490.43,2064.76 4409.73,1983.2 4309.8,1983.2ZM4309.8,2057.83C4368.78,2057.83 4416.66,2105.71 4416.66,2164.68C4416.66,2223.66 4368.78,2271.53 4309.8,2271.53C4250.83,2271.53 4202.95,2223.66 4202.95,2164.68C4202.95,2105.71 4250.83,2057.83 4309.8,2057.83Z" style="fill:rgb(0,58,101);"/>
                    </g>
                    <g id="Node18" serif:id="Node" transform="matrix(0.682268,0,0,0.674439,1420.36,681.387)">
                        <circle cx="4309.8" cy="2164.68" r="106.854" style="fill:rgb(235,235,235);"/>
                        <path d="M4309.8,1983.2C4209.88,1983.2 4129.18,2064.76 4129.18,2164.68C4129.18,2264.6 4209.88,2346.16 4309.8,2346.16C4409.73,2346.16 4490.43,2264.6 4490.43,2164.68C4490.43,2064.76 4409.73,1983.2 4309.8,1983.2ZM4309.8,2057.83C4368.78,2057.83 4416.66,2105.71 4416.66,2164.68C4416.66,2223.66 4368.78,2271.53 4309.8,2271.53C4250.83,2271.53 4202.95,2223.66 4202.95,2164.68C4202.95,2105.71 4250.83,2057.83 4309.8,2057.83Z" style="fill:rgb(0,58,101);"/>
                    </g>
                </g>
            </g>
            <g id="Nail" transform="matrix(33.5754,0,0,33.5754,-33262.5,-153108)">
                <g transform="matrix(50,0,0,50,1001.76,4659.88)">
                    <path d="M0.533,-0L0.533,-0.711L0.395,-0.711L0.395,-0.254L0.198,-0.711L0.06,-0.711L0.06,-0L0.198,-0L0.198,-0.458L0.396,-0L0.533,-0Z" style="fill:rgb(217,26,53);fill-rule:nonzero;"/>
                </g>
                <g transform="matrix(50,0,0,50,1042.94,4659.88)">
                    <path d="M0.414,-0.148L0.455,-0L0.6,-0L0.371,-0.711L0.247,-0.711L0.014,-0L0.158,-0L0.2,-0.148L0.414,-0.148ZM0.234,-0.265L0.309,-0.527L0.381,-0.265L0.234,-0.265Z" style="fill:rgb(217,26,53);fill-rule:nonzero;"/>
                </g>
                <g transform="matrix(50,0,0,50,1084.11,4659.88)">
                    <path d="M0.094,-0.711L0.094,-0.6L0.229,-0.6L0.229,-0.11L0.094,-0.11L0.094,-0L0.505,-0L0.505,-0.11L0.367,-0.11L0.367,-0.6L0.505,-0.6L0.505,-0.711L0.094,-0.711Z" style="fill:rgb(217,26,53);fill-rule:nonzero;"/>
                </g>
                <g transform="matrix(50,0,0,50,1125.29,4659.88)">
                    <path d="M0.211,-0.111L0.211,-0.711L0.073,-0.711L0.073,-0L0.544,-0L0.544,-0.111L0.211,-0.111Z" style="fill:rgb(217,26,53);fill-rule:nonzero;"/>
                </g>
            </g>
        </g>
        <g id="Title" transform="matrix(1,0,0,1,-442.375,-1076.99)">
            <g transform="matrix(300,0,0,300,844.545,1369.66)">
                <path d="M0.074,-0L0.074,-0.716L0.215,-0.716L0.508,-0.238L0.508,-0.716L0.642,-0.716L0.642,-0L0.497,-0L0.208,-0.467L0.208,-0L0.074,-0Z" style="fill:rgb(0,58,101);fill-rule:nonzero;"/>
            </g>
            <g transform="matrix(300,0,0,300,1061.2,1369.66)">
                <path d="M0.372,-0.165L0.509,-0.142C0.491,-0.092 0.463,-0.054 0.426,-0.028C0.388,-0.001 0.34,0.012 0.283,0.012C0.193,0.012 0.126,-0.018 0.083,-0.077C0.049,-0.124 0.032,-0.183 0.032,-0.255C0.032,-0.341 0.054,-0.409 0.099,-0.457C0.144,-0.506 0.201,-0.53 0.27,-0.53C0.347,-0.53 0.408,-0.505 0.452,-0.454C0.497,-0.403 0.518,-0.325 0.516,-0.22L0.172,-0.22C0.173,-0.179 0.184,-0.147 0.206,-0.125C0.227,-0.102 0.253,-0.091 0.285,-0.091C0.306,-0.091 0.324,-0.097 0.339,-0.108C0.354,-0.12 0.365,-0.139 0.372,-0.165ZM0.38,-0.304C0.379,-0.343 0.369,-0.374 0.349,-0.394C0.33,-0.415 0.306,-0.425 0.278,-0.425C0.248,-0.425 0.223,-0.414 0.204,-0.393C0.184,-0.371 0.174,-0.341 0.175,-0.304L0.38,-0.304Z" style="fill:rgb(0,58,101);fill-rule:nonzero;"/>
            </g>
            <g transform="matrix(300,0,0,300,1228.04,1369.66)">
                <path d="M0.168,-0L0.004,-0.519L0.138,-0.519L0.235,-0.179L0.324,-0.519L0.457,-0.519L0.543,-0.179L0.642,-0.519L0.777,-0.519L0.611,-0L0.479,-0L0.39,-0.333L0.302,-0L0.168,-0Z" style="fill:rgb(0,58,101);fill-rule:nonzero;"/>
            </g>
            <g transform="matrix(300,0,0,300,1461.39,1369.66)">
                <path d="M0.524,-0.365L0.389,-0.341C0.384,-0.368 0.374,-0.388 0.358,-0.402C0.342,-0.416 0.321,-0.422 0.295,-0.422C0.261,-0.422 0.233,-0.411 0.213,-0.387C0.193,-0.363 0.183,-0.324 0.183,-0.269C0.183,-0.207 0.193,-0.164 0.214,-0.138C0.234,-0.113 0.262,-0.1 0.297,-0.1C0.323,-0.1 0.344,-0.108 0.361,-0.122C0.377,-0.137 0.389,-0.163 0.396,-0.199L0.531,-0.176C0.517,-0.114 0.49,-0.067 0.45,-0.036C0.41,-0.004 0.357,0.012 0.291,0.012C0.215,0.012 0.154,-0.012 0.109,-0.06C0.064,-0.108 0.042,-0.174 0.042,-0.259C0.042,-0.344 0.064,-0.411 0.109,-0.459C0.155,-0.506 0.216,-0.53 0.293,-0.53C0.356,-0.53 0.406,-0.517 0.444,-0.49C0.481,-0.462 0.508,-0.421 0.524,-0.365Z" style="fill:rgb(0,58,101);fill-rule:nonzero;"/>
            </g>
            <g transform="matrix(300,0,0,300,1628.24,1369.66)">
                <path d="M0.174,-0.36L0.05,-0.383C0.064,-0.433 0.088,-0.47 0.122,-0.494C0.156,-0.518 0.207,-0.53 0.274,-0.53C0.336,-0.53 0.381,-0.523 0.411,-0.509C0.441,-0.494 0.462,-0.476 0.474,-0.453C0.487,-0.431 0.493,-0.39 0.493,-0.331L0.491,-0.17C0.491,-0.125 0.493,-0.091 0.498,-0.07C0.502,-0.048 0.51,-0.025 0.522,-0L0.387,-0C0.383,-0.009 0.379,-0.023 0.374,-0.041C0.371,-0.049 0.37,-0.054 0.369,-0.057C0.345,-0.034 0.32,-0.017 0.293,-0.005C0.267,0.006 0.238,0.012 0.208,0.012C0.155,0.012 0.113,-0.003 0.082,-0.032C0.051,-0.061 0.036,-0.097 0.036,-0.142C0.036,-0.171 0.043,-0.197 0.057,-0.22C0.071,-0.243 0.09,-0.26 0.115,-0.273C0.141,-0.285 0.177,-0.296 0.225,-0.305C0.289,-0.317 0.333,-0.328 0.358,-0.338L0.358,-0.352C0.358,-0.378 0.351,-0.397 0.338,-0.408C0.325,-0.42 0.301,-0.425 0.265,-0.425C0.24,-0.425 0.221,-0.42 0.208,-0.411C0.194,-0.401 0.183,-0.384 0.174,-0.36ZM0.358,-0.249C0.34,-0.243 0.313,-0.236 0.274,-0.228C0.236,-0.22 0.211,-0.212 0.2,-0.204C0.182,-0.191 0.173,-0.175 0.173,-0.156C0.173,-0.137 0.18,-0.12 0.194,-0.106C0.209,-0.092 0.227,-0.085 0.249,-0.085C0.274,-0.085 0.297,-0.093 0.32,-0.109C0.336,-0.122 0.347,-0.137 0.353,-0.155C0.356,-0.167 0.358,-0.189 0.358,-0.222L0.358,-0.249Z" style="fill:rgb(0,58,101);fill-rule:nonzero;"/>
            </g>
            <g transform="matrix(300,0,0,300,1795.08,1369.66)">
                <path d="M0.023,-0.148L0.161,-0.169C0.167,-0.142 0.179,-0.122 0.197,-0.108C0.215,-0.094 0.24,-0.087 0.272,-0.087C0.307,-0.087 0.334,-0.094 0.352,-0.107C0.364,-0.116 0.37,-0.128 0.37,-0.144C0.37,-0.154 0.367,-0.163 0.36,-0.169C0.354,-0.176 0.338,-0.182 0.314,-0.188C0.204,-0.212 0.134,-0.234 0.104,-0.254C0.063,-0.282 0.042,-0.321 0.042,-0.371C0.042,-0.416 0.06,-0.454 0.096,-0.484C0.131,-0.515 0.186,-0.53 0.261,-0.53C0.332,-0.53 0.384,-0.519 0.419,-0.496C0.453,-0.472 0.477,-0.438 0.49,-0.393L0.361,-0.369C0.355,-0.389 0.345,-0.405 0.329,-0.416C0.314,-0.426 0.292,-0.432 0.263,-0.432C0.227,-0.432 0.201,-0.427 0.186,-0.417C0.175,-0.409 0.17,-0.4 0.17,-0.389C0.17,-0.379 0.174,-0.371 0.184,-0.364C0.196,-0.355 0.239,-0.342 0.312,-0.325C0.385,-0.309 0.436,-0.288 0.465,-0.264C0.493,-0.24 0.508,-0.206 0.508,-0.162C0.508,-0.115 0.488,-0.074 0.448,-0.04C0.409,-0.005 0.35,0.012 0.272,0.012C0.201,0.012 0.145,-0.003 0.104,-0.031C0.063,-0.06 0.036,-0.099 0.023,-0.148Z" style="fill:rgb(0,58,101);fill-rule:nonzero;"/>
            </g>
            <g transform="matrix(300,0,0,300,1961.93,1369.66)">
                <path d="M0.31,-0.519L0.31,-0.409L0.216,-0.409L0.216,-0.2C0.216,-0.158 0.217,-0.133 0.219,-0.126C0.22,-0.119 0.224,-0.113 0.231,-0.109C0.237,-0.104 0.245,-0.102 0.254,-0.102C0.267,-0.102 0.285,-0.106 0.309,-0.115L0.321,-0.009C0.289,0.005 0.253,0.012 0.212,0.012C0.188,0.012 0.165,0.008 0.146,-0.001C0.126,-0.009 0.111,-0.02 0.102,-0.033C0.093,-0.046 0.086,-0.064 0.083,-0.086C0.08,-0.102 0.078,-0.135 0.078,-0.183L0.078,-0.409L0.015,-0.409L0.015,-0.519L0.078,-0.519L0.078,-0.622L0.216,-0.702L0.216,-0.519L0.31,-0.519Z" style="fill:rgb(0,58,101);fill-rule:nonzero;"/>
            </g>
            <g transform="matrix(300,0,0,300,2061.83,1369.66)">
                <rect x="0.072" y="-0.716" width="0.137" height="0.716" style="fill:rgb(0,58,101);fill-rule:nonzero;"/>
            </g>
            <g transform="matrix(300,0,0,300,2145.18,1369.66)">
                <path d="M0.372,-0.165L0.509,-0.142C0.491,-0.092 0.463,-0.054 0.426,-0.028C0.388,-0.001 0.34,0.012 0.283,0.012C0.193,0.012 0.126,-0.018 0.083,-0.077C0.049,-0.124 0.032,-0.183 0.032,-0.255C0.032,-0.341 0.054,-0.409 0.099,-0.457C0.144,-0.506 0.201,-0.53 0.27,-0.53C0.347,-0.53 0.408,-0.505 0.452,-0.454C0.497,-0.403 0.518,-0.325 0.516,-0.22L0.172,-0.22C0.173,-0.179 0.184,-0.147 0.206,-0.125C0.227,-0.102 0.253,-0.091 0.285,-0.091C0.306,-0.091 0.324,-0.097 0.339,-0.108C0.354,-0.12 0.365,-0.139 0.372,-0.165ZM0.38,-0.304C0.379,-0.343 0.369,-0.374 0.349,-0.394C0.33,-0.415 0.306,-0.425 0.278,-0.425C0.248,-0.425 0.223,-0.414 0.204,-0.393C0.184,-0.371 0.174,-0.341 0.175,-0.304L0.38,-0.304Z" style="fill:rgb(0,58,101);fill-rule:nonzero;"/>
            </g>
            <g transform="matrix(300,0,0,300,2384.24,1369.66)">
                <path d="M0.718,-0L0.561,-0L0.499,-0.163L0.212,-0.163L0.153,-0L0,-0L0.279,-0.716L0.432,-0.716L0.718,-0ZM0.452,-0.283L0.354,-0.549L0.257,-0.283L0.452,-0.283Z" style="fill:rgb(0,58,101);fill-rule:nonzero;"/>
            </g>
            <g transform="matrix(300,0,0,300,2600.89,1369.66)">
                <path d="M0.203,-0L0.066,-0L0.066,-0.519L0.193,-0.519L0.193,-0.445C0.215,-0.48 0.235,-0.503 0.252,-0.514C0.27,-0.525 0.289,-0.53 0.312,-0.53C0.343,-0.53 0.373,-0.522 0.402,-0.504L0.359,-0.385C0.336,-0.4 0.315,-0.407 0.295,-0.407C0.276,-0.407 0.259,-0.402 0.246,-0.391C0.233,-0.381 0.222,-0.362 0.215,-0.334C0.207,-0.306 0.203,-0.248 0.203,-0.16L0.203,-0Z" style="fill:rgb(0,58,101);fill-rule:nonzero;"/>
            </g>
            <g transform="matrix(300,0,0,300,2717.64,1369.66)">
                <path d="M0.31,-0.519L0.31,-0.409L0.216,-0.409L0.216,-0.2C0.216,-0.158 0.217,-0.133 0.219,-0.126C0.22,-0.119 0.224,-0.113 0.231,-0.109C0.237,-0.104 0.245,-0.102 0.254,-0.102C0.267,-0.102 0.285,-0.106 0.309,-0.115L0.321,-0.009C0.289,0.005 0.253,0.012 0.212,0.012C0.188,0.012 0.165,0.008 0.146,-0.001C0.126,-0.009 0.111,-0.02 0.102,-0.033C0.093,-0.046 0.086,-0.064 0.083,-0.086C0.08,-0.102 0.078,-0.135 0.078,-0.183L0.078,-0.409L0.015,-0.409L0.015,-0.519L0.078,-0.519L0.078,-0.622L0.216,-0.702L0.216,-0.519L0.31,-0.519Z" style="fill:rgb(0,58,101);fill-rule:nonzero;"/>
            </g>
            <g transform="matrix(300,0,0,300,2817.54,1369.66)">
                <path d="M0.072,-0.589L0.072,-0.716L0.209,-0.716L0.209,-0.589L0.072,-0.589ZM0.072,-0L0.072,-0.519L0.209,-0.519L0.209,-0L0.072,-0Z" style="fill:rgb(0,58,101);fill-rule:nonzero;"/>
            </g>
            <g transform="matrix(300,0,0,300,2900.89,1369.66)">
                <path d="M0.015,-0.519L0.091,-0.519L0.091,-0.558C0.091,-0.601 0.096,-0.634 0.105,-0.655C0.115,-0.677 0.132,-0.694 0.156,-0.708C0.181,-0.721 0.213,-0.728 0.251,-0.728C0.29,-0.728 0.328,-0.722 0.366,-0.71L0.347,-0.615C0.325,-0.62 0.304,-0.623 0.284,-0.623C0.264,-0.623 0.25,-0.618 0.241,-0.609C0.233,-0.599 0.229,-0.582 0.229,-0.555L0.229,-0.519L0.331,-0.519L0.331,-0.411L0.229,-0.411L0.229,-0L0.091,-0L0.091,-0.411L0.015,-0.411L0.015,-0.519ZM0.4,-0.589L0.4,-0.716L0.538,-0.716L0.538,-0.589L0.4,-0.589ZM0.4,-0L0.4,-0.519L0.538,-0.519L0.538,-0L0.4,-0Z" style="fill:rgb(0,58,101);fill-rule:nonzero;"/>
            </g>
            <g transform="matrix(300,0,0,300,3084.14,1369.66)">
                <path d="M0.524,-0.365L0.389,-0.341C0.384,-0.368 0.374,-0.388 0.358,-0.402C0.342,-0.416 0.321,-0.422 0.295,-0.422C0.261,-0.422 0.233,-0.411 0.213,-0.387C0.193,-0.363 0.183,-0.324 0.183,-0.269C0.183,-0.207 0.193,-0.164 0.214,-0.138C0.234,-0.113 0.262,-0.1 0.297,-0.1C0.323,-0.1 0.344,-0.108 0.361,-0.122C0.377,-0.137 0.389,-0.163 0.396,-0.199L0.531,-0.176C0.517,-0.114 0.49,-0.067 0.45,-0.036C0.41,-0.004 0.357,0.012 0.291,0.012C0.215,0.012 0.154,-0.012 0.109,-0.06C0.064,-0.108 0.042,-0.174 0.042,-0.259C0.042,-0.344 0.064,-0.411 0.109,-0.459C0.155,-0.506 0.216,-0.53 0.293,-0.53C0.356,-0.53 0.406,-0.517 0.444,-0.49C0.481,-0.462 0.508,-0.421 0.524,-0.365Z" style="fill:rgb(0,58,101);fill-rule:nonzero;"/>
            </g>
            <g transform="matrix(300,0,0,300,3250.99,1369.66)">
                <path d="M0.072,-0.589L0.072,-0.716L0.209,-0.716L0.209,-0.589L0.072,-0.589ZM0.072,-0L0.072,-0.519L0.209,-0.519L0.209,-0L0.072,-0Z" style="fill:rgb(0,58,101);fill-rule:nonzero;"/>
            </g>
            <g transform="matrix(300,0,0,300,3334.34,1369.66)">
                <path d="M0.174,-0.36L0.05,-0.383C0.064,-0.433 0.088,-0.47 0.122,-0.494C0.156,-0.518 0.207,-0.53 0.274,-0.53C0.336,-0.53 0.381,-0.523 0.411,-0.509C0.441,-0.494 0.462,-0.476 0.474,-0.453C0.487,-0.431 0.493,-0.39 0.493,-0.331L0.491,-0.17C0.491,-0.125 0.493,-0.091 0.498,-0.07C0.502,-0.048 0.51,-0.025 0.522,-0L0.387,-0C0.383,-0.009 0.379,-0.023 0.374,-0.041C0.371,-0.049 0.37,-0.054 0.369,-0.057C0.345,-0.034 0.32,-0.017 0.293,-0.005C0.267,0.006 0.238,0.012 0.208,0.012C0.155,0.012 0.113,-0.003 0.082,-0.032C0.051,-0.061 0.036,-0.097 0.036,-0.142C0.036,-0.171 0.043,-0.197 0.057,-0.22C0.071,-0.243 0.09,-0.26 0.115,-0.273C0.141,-0.285 0.177,-0.296 0.225,-0.305C0.289,-0.317 0.333,-0.328 0.358,-0.338L0.358,-0.352C0.358,-0.378 0.351,-0.397 0.338,-0.408C0.325,-0.42 0.301,-0.425 0.265,-0.425C0.24,-0.425 0.221,-0.42 0.208,-0.411C0.194,-0.401 0.183,-0.384 0.174,-0.36ZM0.358,-0.249C0.34,-0.243 0.313,-0.236 0.274,-0.228C0.236,-0.22 0.211,-0.212 0.2,-0.204C0.182,-0.191 0.173,-0.175 0.173,-0.156C0.173,-0.137 0.18,-0.12 0.194,-0.106C0.209,-0.092 0.227,-0.085 0.249,-0.085C0.274,-0.085 0.297,-0.093 0.32,-0.109C0.336,-0.122 0.347,-0.137 0.353,-0.155C0.356,-0.167 0.358,-0.189 0.358,-0.222L0.358,-0.249Z" style="fill:rgb(0,58,101);fill-rule:nonzero;"/>
            </g>
            <g transform="matrix(300,0,0,300,3501.19,1369.66)">
                <rect x="0.072" y="-0.716" width="0.137" height="0.716" style="fill:rgb(0,58,101);fill-rule:nonzero;"/>
            </g>
            <g transform="matrix(300,0,0,300,3667.89,1369.66)">
                <rect x="0.068" y="-0.716" width="0.145" height="0.716" style="fill:rgb(0,58,101);fill-rule:nonzero;"/>
            </g>
            <g transform="matrix(300,0,0,300,3751.23,1369.66)">
                <path d="M0.543,-0L0.406,-0L0.406,-0.265C0.406,-0.321 0.403,-0.357 0.397,-0.373C0.392,-0.39 0.382,-0.403 0.369,-0.412C0.356,-0.421 0.34,-0.425 0.321,-0.425C0.298,-0.425 0.276,-0.419 0.257,-0.406C0.238,-0.393 0.226,-0.375 0.219,-0.354C0.212,-0.333 0.208,-0.293 0.208,-0.235L0.208,-0L0.071,-0L0.071,-0.519L0.198,-0.519L0.198,-0.442C0.243,-0.501 0.3,-0.53 0.369,-0.53C0.399,-0.53 0.427,-0.525 0.452,-0.514C0.477,-0.503 0.496,-0.489 0.509,-0.472C0.522,-0.455 0.531,-0.436 0.536,-0.415C0.541,-0.393 0.543,-0.362 0.543,-0.322L0.543,-0Z" style="fill:rgb(0,58,101);fill-rule:nonzero;"/>
            </g>
            <g transform="matrix(300,0,0,300,3934.49,1369.66)">
                <path d="M0.31,-0.519L0.31,-0.409L0.216,-0.409L0.216,-0.2C0.216,-0.158 0.217,-0.133 0.219,-0.126C0.22,-0.119 0.224,-0.113 0.231,-0.109C0.237,-0.104 0.245,-0.102 0.254,-0.102C0.267,-0.102 0.285,-0.106 0.309,-0.115L0.321,-0.009C0.289,0.005 0.253,0.012 0.212,0.012C0.188,0.012 0.165,0.008 0.146,-0.001C0.126,-0.009 0.111,-0.02 0.102,-0.033C0.093,-0.046 0.086,-0.064 0.083,-0.086C0.08,-0.102 0.078,-0.135 0.078,-0.183L0.078,-0.409L0.015,-0.409L0.015,-0.519L0.078,-0.519L0.078,-0.622L0.216,-0.702L0.216,-0.519L0.31,-0.519Z" style="fill:rgb(0,58,101);fill-rule:nonzero;"/>
            </g>
            <g transform="matrix(300,0,0,300,4034.39,1369.66)">
                <path d="M0.372,-0.165L0.509,-0.142C0.491,-0.092 0.463,-0.054 0.426,-0.028C0.388,-0.001 0.34,0.012 0.283,0.012C0.193,0.012 0.126,-0.018 0.083,-0.077C0.049,-0.124 0.032,-0.183 0.032,-0.255C0.032,-0.341 0.054,-0.409 0.099,-0.457C0.144,-0.506 0.201,-0.53 0.27,-0.53C0.347,-0.53 0.408,-0.505 0.452,-0.454C0.497,-0.403 0.518,-0.325 0.516,-0.22L0.172,-0.22C0.173,-0.179 0.184,-0.147 0.206,-0.125C0.227,-0.102 0.253,-0.091 0.285,-0.091C0.306,-0.091 0.324,-0.097 0.339,-0.108C0.354,-0.12 0.365,-0.139 0.372,-0.165ZM0.38,-0.304C0.379,-0.343 0.369,-0.374 0.349,-0.394C0.33,-0.415 0.306,-0.425 0.278,-0.425C0.248,-0.425 0.223,-0.414 0.204,-0.393C0.184,-0.371 0.174,-0.341 0.175,-0.304L0.38,-0.304Z" style="fill:rgb(0,58,101);fill-rule:nonzero;"/>
            </g>
            <g transform="matrix(300,0,0,300,4201.23,1369.66)">
                <rect x="0.072" y="-0.716" width="0.137" height="0.716" style="fill:rgb(0,58,101);fill-rule:nonzero;"/>
            </g>
            <g transform="matrix(300,0,0,300,4284.58,1369.66)">
                <rect x="0.072" y="-0.716" width="0.137" height="0.716" style="fill:rgb(0,58,101);fill-rule:nonzero;"/>
            </g>
            <g transform="matrix(300,0,0,300,4367.93,1369.66)">
                <path d="M0.072,-0.589L0.072,-0.716L0.209,-0.716L0.209,-0.589L0.072,-0.589ZM0.072,-0L0.072,-0.519L0.209,-0.519L0.209,-0L0.072,-0Z" style="fill:rgb(0,58,101);fill-rule:nonzero;"/>
            </g>
            <g transform="matrix(300,0,0,300,4451.28,1369.66)">
                <path d="M0.059,0.034L0.216,0.053C0.218,0.071 0.224,0.084 0.234,0.091C0.247,0.101 0.267,0.105 0.295,0.105C0.331,0.105 0.358,0.1 0.376,0.089C0.388,0.082 0.397,0.071 0.403,0.055C0.408,0.043 0.41,0.022 0.41,-0.008L0.41,-0.084C0.369,-0.028 0.317,-0 0.254,-0C0.185,-0 0.13,-0.029 0.089,-0.088C0.057,-0.135 0.041,-0.193 0.041,-0.262C0.041,-0.349 0.062,-0.416 0.104,-0.461C0.146,-0.507 0.198,-0.53 0.26,-0.53C0.324,-0.53 0.377,-0.502 0.418,-0.446L0.418,-0.519L0.547,-0.519L0.547,-0.053C0.547,0.008 0.542,0.054 0.532,0.084C0.522,0.114 0.507,0.138 0.489,0.155C0.471,0.173 0.447,0.186 0.416,0.196C0.386,0.206 0.347,0.21 0.301,0.21C0.213,0.21 0.151,0.195 0.114,0.165C0.077,0.135 0.059,0.097 0.059,0.051C0.059,0.046 0.059,0.041 0.059,0.034ZM0.182,-0.27C0.182,-0.215 0.192,-0.175 0.214,-0.149C0.235,-0.124 0.261,-0.111 0.292,-0.111C0.326,-0.111 0.354,-0.124 0.377,-0.15C0.401,-0.176 0.412,-0.215 0.412,-0.267C0.412,-0.32 0.401,-0.36 0.379,-0.386C0.357,-0.412 0.329,-0.425 0.295,-0.425C0.262,-0.425 0.235,-0.413 0.214,-0.387C0.192,-0.361 0.182,-0.322 0.182,-0.27Z" style="fill:rgb(0,58,101);fill-rule:nonzero;"/>
            </g>
            <g transform="matrix(300,0,0,300,4634.54,1369.66)">
                <path d="M0.372,-0.165L0.509,-0.142C0.491,-0.092 0.463,-0.054 0.426,-0.028C0.388,-0.001 0.34,0.012 0.283,0.012C0.193,0.012 0.126,-0.018 0.083,-0.077C0.049,-0.124 0.032,-0.183 0.032,-0.255C0.032,-0.341 0.054,-0.409 0.099,-0.457C0.144,-0.506 0.201,-0.53 0.27,-0.53C0.347,-0.53 0.408,-0.505 0.452,-0.454C0.497,-0.403 0.518,-0.325 0.516,-0.22L0.172,-0.22C0.173,-0.179 0.184,-0.147 0.206,-0.125C0.227,-0.102 0.253,-0.091 0.285,-0.091C0.306,-0.091 0.324,-0.097 0.339,-0.108C0.354,-0.12 0.365,-0.139 0.372,-0.165ZM0.38,-0.304C0.379,-0.343 0.369,-0.374 0.349,-0.394C0.33,-0.415 0.306,-0.425 0.278,-0.425C0.248,-0.425 0.223,-0.414 0.204,-0.393C0.184,-0.371 0.174,-0.341 0.175,-0.304L0.38,-0.304Z" style="fill:rgb(0,58,101);fill-rule:nonzero;"/>
            </g>
            <g transform="matrix(300,0,0,300,4801.38,1369.66)">
                <path d="M0.543,-0L0.406,-0L0.406,-0.265C0.406,-0.321 0.403,-0.357 0.397,-0.373C0.392,-0.39 0.382,-0.403 0.369,-0.412C0.356,-0.421 0.34,-0.425 0.321,-0.425C0.298,-0.425 0.276,-0.419 0.257,-0.406C0.238,-0.393 0.226,-0.375 0.219,-0.354C0.212,-0.333 0.208,-0.293 0.208,-0.235L0.208,-0L0.071,-0L0.071,-0.519L0.198,-0.519L0.198,-0.442C0.243,-0.501 0.3,-0.53 0.369,-0.53C0.399,-0.53 0.427,-0.525 0.452,-0.514C0.477,-0.503 0.496,-0.489 0.509,-0.472C0.522,-0.455 0.531,-0.436 0.536,-0.415C0.541,-0.393 0.543,-0.362 0.543,-0.322L0.543,-0Z" style="fill:rgb(0,58,101);fill-rule:nonzero;"/>
            </g>
            <g transform="matrix(300,0,0,300,4984.63,1369.66)">
                <path d="M0.524,-0.365L0.389,-0.341C0.384,-0.368 0.374,-0.388 0.358,-0.402C0.342,-0.416 0.321,-0.422 0.295,-0.422C0.261,-0.422 0.233,-0.411 0.213,-0.387C0.193,-0.363 0.183,-0.324 0.183,-0.269C0.183,-0.207 0.193,-0.164 0.214,-0.138C0.234,-0.113 0.262,-0.1 0.297,-0.1C0.323,-0.1 0.344,-0.108 0.361,-0.122C0.377,-0.137 0.389,-0.163 0.396,-0.199L0.531,-0.176C0.517,-0.114 0.49,-0.067 0.45,-0.036C0.41,-0.004 0.357,0.012 0.291,0.012C0.215,0.012 0.154,-0.012 0.109,-0.06C0.064,-0.108 0.042,-0.174 0.042,-0.259C0.042,-0.344 0.064,-0.411 0.109,-0.459C0.155,-0.506 0.216,-0.53 0.293,-0.53C0.356,-0.53 0.406,-0.517 0.444,-0.49C0.481,-0.462 0.508,-0.421 0.524,-0.365Z" style="fill:rgb(0,58,101);fill-rule:nonzero;"/>
            </g>
            <g transform="matrix(300,0,0,300,5151.48,1369.66)">
                <path d="M0.372,-0.165L0.509,-0.142C0.491,-0.092 0.463,-0.054 0.426,-0.028C0.388,-0.001 0.34,0.012 0.283,0.012C0.193,0.012 0.126,-0.018 0.083,-0.077C0.049,-0.124 0.032,-0.183 0.032,-0.255C0.032,-0.341 0.054,-0.409 0.099,-0.457C0.144,-0.506 0.201,-0.53 0.27,-0.53C0.347,-0.53 0.408,-0.505 0.452,-0.454C0.497,-0.403 0.518,-0.325 0.516,-0.22L0.172,-0.22C0.173,-0.179 0.184,-0.147 0.206,-0.125C0.227,-0.102 0.253,-0.091 0.285,-0.091C0.306,-0.091 0.324,-0.097 0.339,-0.108C0.354,-0.12 0.365,-0.139 0.372,-0.165ZM0.38,-0.304C0.379,-0.343 0.369,-0.374 0.349,-0.394C0.33,-0.415 0.306,-0.425 0.278,-0.425C0.248,-0.425 0.223,-0.414 0.204,-0.393C0.184,-0.371 0.174,-0.341 0.175,-0.304L0.38,-0.304Z" style="fill:rgb(0,58,101);fill-rule:nonzero;"/>
            </g>
            <g transform="matrix(300,0,0,300,5401.67,1369.66)">
                <path d="M0.077,-0L0.077,-0.71L0.221,-0.71L0.221,-0.121L0.581,-0.121L0.581,-0L0.077,-0Z" style="fill:rgb(0,58,101);fill-rule:nonzero;"/>
            </g>
            <g transform="matrix(300,0,0,300,5584.93,1369.66)">
                <path d="M0.174,-0.36L0.05,-0.383C0.064,-0.433 0.088,-0.47 0.122,-0.494C0.156,-0.518 0.207,-0.53 0.274,-0.53C0.336,-0.53 0.381,-0.523 0.411,-0.509C0.441,-0.494 0.462,-0.476 0.474,-0.453C0.487,-0.431 0.493,-0.39 0.493,-0.331L0.491,-0.17C0.491,-0.125 0.493,-0.091 0.498,-0.07C0.502,-0.048 0.51,-0.025 0.522,-0L0.387,-0C0.383,-0.009 0.379,-0.023 0.374,-0.041C0.371,-0.049 0.37,-0.054 0.369,-0.057C0.345,-0.034 0.32,-0.017 0.293,-0.005C0.267,0.006 0.238,0.012 0.208,0.012C0.155,0.012 0.113,-0.003 0.082,-0.032C0.051,-0.061 0.036,-0.097 0.036,-0.142C0.036,-0.171 0.043,-0.197 0.057,-0.22C0.071,-0.243 0.09,-0.26 0.115,-0.273C0.141,-0.285 0.177,-0.296 0.225,-0.305C0.289,-0.317 0.333,-0.328 0.358,-0.338L0.358,-0.352C0.358,-0.378 0.351,-0.397 0.338,-0.408C0.325,-0.42 0.301,-0.425 0.265,-0.425C0.24,-0.425 0.221,-0.42 0.208,-0.411C0.194,-0.401 0.183,-0.384 0.174,-0.36ZM0.358,-0.249C0.34,-0.243 0.313,-0.236 0.274,-0.228C0.236,-0.22 0.211,-0.212 0.2,-0.204C0.182,-0.191 0.173,-0.175 0.173,-0.156C0.173,-0.137 0.18,-0.12 0.194,-0.106C0.209,-0.092 0.227,-0.085 0.249,-0.085C0.274,-0.085 0.297,-0.093 0.32,-0.109C0.336,-0.122 0.347,-0.137 0.353,-0.155C0.356,-0.167 0.358,-0.189 0.358,-0.222L0.358,-0.249Z" style="fill:rgb(0,58,101);fill-rule:nonzero;"/>
            </g>
            <g transform="matrix(300,0,0,300,5751.77,1369.66)">
                <path d="M0.066,-0L0.066,-0.716L0.203,-0.716L0.203,-0.458C0.245,-0.506 0.296,-0.53 0.354,-0.53C0.417,-0.53 0.469,-0.507 0.51,-0.462C0.552,-0.416 0.572,-0.35 0.572,-0.265C0.572,-0.176 0.551,-0.108 0.509,-0.06C0.467,-0.012 0.416,0.012 0.355,0.012C0.326,0.012 0.297,0.004 0.268,-0.01C0.239,-0.025 0.214,-0.047 0.193,-0.076L0.193,-0L0.066,-0ZM0.202,-0.271C0.202,-0.217 0.211,-0.177 0.228,-0.151C0.251,-0.115 0.283,-0.097 0.322,-0.097C0.353,-0.097 0.378,-0.11 0.4,-0.135C0.421,-0.161 0.432,-0.202 0.432,-0.258C0.432,-0.317 0.421,-0.36 0.399,-0.386C0.378,-0.412 0.35,-0.425 0.317,-0.425C0.284,-0.425 0.257,-0.413 0.235,-0.387C0.213,-0.361 0.202,-0.323 0.202,-0.271Z" style="fill:rgb(0,58,101);fill-rule:nonzero;"/>
            </g>
        </g>
    </g>
</svg>
